<svg xmlns="http://www.w3.org/2000/svg" width="22" height="22" viewBox="0 0 22 22" fill="none">
                                    <g filter="url(#filter0_i_693_428)">
                                        <path d="M12.8469 17.0881C13.1489 16.9565 13.2745 16.7638 13.3652 16.6504C14.1801 15.6325 12.4414 12.6113 9.95906 10.8631C7.32813 8.57226 4.43133 7.79163 3.61642 8.8095C3.47655 8.98419 3.36694 9.22216 3.32129 9.49071L1.77441 18.3906C1.7207 19.4756 2.13538 19.8879 2.34289 20.0893C2.71894 20.4543 3.45019 20.7646 4.21289 20.4961C7.15625 19.3628 9.91366 18.3669 12.8469 17.0881Z" fill="url(#paint0_linear_693_428)" />
                                    </g>
                                    <path d="M12.8469 17.0881C13.1489 16.9565 13.2745 16.7638 13.3652 16.6504C14.1801 15.6325 12.4414 12.6113 9.95906 10.8631C7.32813 8.57226 4.43133 7.79163 3.61642 8.8095C3.47655 8.98419 3.36694 9.22216 3.32129 9.49071L1.77441 18.3906C1.7207 19.4756 2.13538 19.8879 2.34289 20.0893C2.71894 20.4543 3.45019 20.7646 4.21289 20.4961C7.15625 19.3628 9.91366 18.3669 12.8469 17.0881Z" fill="url(#paint1_linear_693_428)" />
                                    <path d="M12.8469 17.0881C13.1489 16.9565 13.2745 16.7638 13.3652 16.6504C14.1801 15.6325 12.4414 12.6113 9.95906 10.8631C7.32813 8.57226 4.43133 7.79163 3.61642 8.8095C3.47655 8.98419 3.36694 9.22216 3.32129 9.49071L1.77441 18.3906C1.7207 19.4756 2.13538 19.8879 2.34289 20.0893C2.71894 20.4543 3.45019 20.7646 4.21289 20.4961C7.15625 19.3628 9.91366 18.3669 12.8469 17.0881Z" fill="url(#paint2_linear_693_428)" />
                                    <path d="M12.8469 17.0881C13.1489 16.9565 13.2745 16.7638 13.3652 16.6504C14.1801 15.6325 12.4414 12.6113 9.95906 10.8631C7.32813 8.57226 4.43133 7.79163 3.61642 8.8095C3.47655 8.98419 3.36694 9.22216 3.32129 9.49071L1.77441 18.3906C1.7207 19.4756 2.13538 19.8879 2.34289 20.0893C2.71894 20.4543 3.45019 20.7646 4.21289 20.4961C7.15625 19.3628 9.91366 18.3669 12.8469 17.0881Z" fill="url(#paint3_linear_693_428)" />
                                    <g filter="url(#filter1_f_693_428)">
                                        <ellipse cx="8.45501" cy="12.8038" rx="6.03104" ry="2.38165" transform="rotate(39.7456 8.45501 12.8038)" fill="url(#paint4_linear_693_428)" />
                                    </g>
                                    <g filter="url(#filter2_f_693_428)">
                                        <ellipse cx="8.63128" cy="12.5034" rx="5.58953" ry="2.00431" transform="rotate(39.7456 8.63128 12.5034)" fill="url(#paint5_linear_693_428)" />
                                        <ellipse cx="8.63128" cy="12.5034" rx="5.58953" ry="2.00431" transform="rotate(39.7456 8.63128 12.5034)" fill="url(#paint6_radial_693_428)" />
                                        <ellipse cx="8.63128" cy="12.5034" rx="5.58953" ry="2.00431" transform="rotate(39.7456 8.63128 12.5034)" fill="url(#paint7_radial_693_428)" />
                                    </g>
                                    <circle cx="10.2822" cy="11" r="0.827148" fill="url(#paint8_radial_693_428)" />
                                    <circle cx="10.2822" cy="11" r="0.827148" fill="url(#paint9_radial_693_428)" />
                                    <circle cx="17.0713" cy="15.748" r="0.827148" fill="url(#paint10_radial_693_428)" />
                                    <circle cx="17.0713" cy="15.748" r="0.827148" fill="url(#paint11_radial_693_428)" />
                                    <circle cx="17.0713" cy="15.748" r="0.827148" fill="url(#paint12_radial_693_428)" />
                                    <circle cx="16.3784" cy="4.82324" r="0.827148" fill="url(#paint13_radial_693_428)" />
                                    <circle cx="16.3784" cy="4.82324" r="0.827148" fill="url(#paint14_radial_693_428)" />
                                    <circle cx="6.86871" cy="2.31494" r="0.827148" fill="url(#paint15_radial_693_428)" />
                                    <circle cx="6.86871" cy="2.31494" r="0.827148" fill="url(#paint16_radial_693_428)" />
                                    <circle cx="6.86871" cy="2.31494" r="0.827148" fill="url(#paint17_radial_693_428)" />
                                    <circle cx="3.38824" cy="5.5752" r="0.827148" fill="url(#paint18_radial_693_428)" />
                                    <circle cx="3.38824" cy="5.5752" r="0.827148" fill="url(#paint19_radial_693_428)" />
                                    <path d="M10.9674 17.8813C9.1758 17.7568 7.9192 17.2206 5.88332 15.5386C4.13197 14.0916 3.26247 12.8079 2.97227 11.4989L2.63605 13.4333C2.77346 14.1904 3.36428 15.2485 4.53517 16.3066C6.06658 17.6905 7.59133 18.6699 9.09919 18.627C9.71979 18.3847 10.3413 18.1376 10.9674 17.8813Z" fill="url(#paint20_radial_693_428)" />
                                    <path d="M7.18917 19.362C6.32809 19.41 5.16359 18.7075 3.9551 17.7031C2.92385 16.8115 2.41517 15.8429 2.30811 15.3202L1.96667 17.2846C2.05113 17.6167 2.30833 18.068 3.05275 18.8311C3.88517 19.6843 4.72227 20.0163 5.21939 20.1107C5.57212 19.9763 5.92273 19.8432 6.27185 19.7106C6.57862 19.5942 6.88425 19.4781 7.18917 19.362Z" fill="url(#paint21_radial_693_428)" />
                                    <g filter="url(#filter3_i_693_428)">
                                        <path fill-rule="evenodd" clip-rule="evenodd" d="M19.1834 9.01219C16.7099 8.52898 15.2483 9.66216 14.785 10.1704C14.5164 10.465 14.0598 10.4861 13.7652 10.2175C13.4705 9.94896 13.4494 9.49238 13.718 9.19775C14.4363 8.40975 16.38 6.9935 19.4602 7.59522C19.8515 7.67166 20.1067 8.05083 20.0303 8.44211C19.9538 8.8334 19.5747 9.08863 19.1834 9.01219Z" fill="url(#paint22_radial_693_428)" />
                                        <path fill-rule="evenodd" clip-rule="evenodd" d="M19.1834 9.01219C16.7099 8.52898 15.2483 9.66216 14.785 10.1704C14.5164 10.465 14.0598 10.4861 13.7652 10.2175C13.4705 9.94896 13.4494 9.49238 13.718 9.19775C14.4363 8.40975 16.38 6.9935 19.4602 7.59522C19.8515 7.67166 20.1067 8.05083 20.0303 8.44211C19.9538 8.8334 19.5747 9.08863 19.1834 9.01219Z" fill="url(#paint23_radial_693_428)" />
                                    </g>
                                    <path
                                        fill-rule="evenodd"
                                        clip-rule="evenodd"
                                        d="M13.134 1.43157C13.4943 1.44842 13.7728 1.75417 13.7559 2.11449C13.7327 2.61058 13.6424 3.437 13.4269 4.31976C13.2468 5.05761 12.9695 5.87601 12.5424 6.57766C12.6457 7.12504 12.6485 7.77094 12.5351 8.50539C12.4801 8.86188 12.1465 9.10627 11.79 9.05124C11.4335 8.99622 11.1891 8.66263 11.2442 8.30614C11.2695 8.14181 11.2875 7.98793 11.2991 7.84391C11.1723 7.91001 11.0425 7.96183 10.9099 7.99886C10.3922 8.14353 9.89557 8.04326 9.50714 7.7845C8.76917 7.2929 8.42889 6.21711 9.00011 5.33761C9.54351 4.50095 10.6761 4.27347 11.5373 4.86874C11.6366 4.93737 11.7298 5.01471 11.8167 5.10052C11.9541 4.75304 12.0671 4.38227 12.158 4.00996C12.3513 3.21812 12.4314 2.47585 12.4511 2.05348C12.468 1.69316 12.7737 1.41473 13.134 1.43157ZM11.1079 6.34066C11.0087 6.13419 10.8909 6.00992 10.7945 5.94328C10.5251 5.75705 10.2289 5.84378 10.0956 6.04911C9.95258 6.26928 10.0282 6.56208 10.2313 6.69738C10.3134 6.75208 10.4187 6.77984 10.5584 6.7408C10.6848 6.70547 10.8783 6.60288 11.1079 6.34066Z"
                                        fill="url(#paint24_linear_693_428)"
                                    />
                                    <path
                                        fill-rule="evenodd"
                                        clip-rule="evenodd"
                                        d="M13.134 1.43157C13.4943 1.44842 13.7728 1.75417 13.7559 2.11449C13.7327 2.61058 13.6424 3.437 13.4269 4.31976C13.2468 5.05761 12.9695 5.87601 12.5424 6.57766C12.6457 7.12504 12.6485 7.77094 12.5351 8.50539C12.4801 8.86188 12.1465 9.10627 11.79 9.05124C11.4335 8.99622 11.1891 8.66263 11.2442 8.30614C11.2695 8.14181 11.2875 7.98793 11.2991 7.84391C11.1723 7.91001 11.0425 7.96183 10.9099 7.99886C10.3922 8.14353 9.89557 8.04326 9.50714 7.7845C8.76917 7.2929 8.42889 6.21711 9.00011 5.33761C9.54351 4.50095 10.6761 4.27347 11.5373 4.86874C11.6366 4.93737 11.7298 5.01471 11.8167 5.10052C11.9541 4.75304 12.0671 4.38227 12.158 4.00996C12.3513 3.21812 12.4314 2.47585 12.4511 2.05348C12.468 1.69316 12.7737 1.41473 13.134 1.43157ZM11.1079 6.34066C11.0087 6.13419 10.8909 6.00992 10.7945 5.94328C10.5251 5.75705 10.2289 5.84378 10.0956 6.04911C9.95258 6.26928 10.0282 6.56208 10.2313 6.69738C10.3134 6.75208 10.4187 6.77984 10.5584 6.7408C10.6848 6.70547 10.8783 6.60288 11.1079 6.34066Z"
                                        fill="url(#paint25_radial_693_428)"
                                    />
                                    <path
                                        fill-rule="evenodd"
                                        clip-rule="evenodd"
                                        d="M13.134 1.43157C13.4943 1.44842 13.7728 1.75417 13.7559 2.11449C13.7327 2.61058 13.6424 3.437 13.4269 4.31976C13.2468 5.05761 12.9695 5.87601 12.5424 6.57766C12.6457 7.12504 12.6485 7.77094 12.5351 8.50539C12.4801 8.86188 12.1465 9.10627 11.79 9.05124C11.4335 8.99622 11.1891 8.66263 11.2442 8.30614C11.2695 8.14181 11.2875 7.98793 11.2991 7.84391C11.1723 7.91001 11.0425 7.96183 10.9099 7.99886C10.3922 8.14353 9.89557 8.04326 9.50714 7.7845C8.76917 7.2929 8.42889 6.21711 9.00011 5.33761C9.54351 4.50095 10.6761 4.27347 11.5373 4.86874C11.6366 4.93737 11.7298 5.01471 11.8167 5.10052C11.9541 4.75304 12.0671 4.38227 12.158 4.00996C12.3513 3.21812 12.4314 2.47585 12.4511 2.05348C12.468 1.69316 12.7737 1.41473 13.134 1.43157ZM11.1079 6.34066C11.0087 6.13419 10.8909 6.00992 10.7945 5.94328C10.5251 5.75705 10.2289 5.84378 10.0956 6.04911C9.95258 6.26928 10.0282 6.56208 10.2313 6.69738C10.3134 6.75208 10.4187 6.77984 10.5584 6.7408C10.6848 6.70547 10.8783 6.60288 11.1079 6.34066Z"
                                        fill="url(#paint26_radial_693_428)"
                                    />
                                    <path
                                        fill-rule="evenodd"
                                        clip-rule="evenodd"
                                        d="M13.134 1.43157C13.4943 1.44842 13.7728 1.75417 13.7559 2.11449C13.7327 2.61058 13.6424 3.437 13.4269 4.31976C13.2468 5.05761 12.9695 5.87601 12.5424 6.57766C12.6457 7.12504 12.6485 7.77094 12.5351 8.50539C12.4801 8.86188 12.1465 9.10627 11.79 9.05124C11.4335 8.99622 11.1891 8.66263 11.2442 8.30614C11.2695 8.14181 11.2875 7.98793 11.2991 7.84391C11.1723 7.91001 11.0425 7.96183 10.9099 7.99886C10.3922 8.14353 9.89557 8.04326 9.50714 7.7845C8.76917 7.2929 8.42889 6.21711 9.00011 5.33761C9.54351 4.50095 10.6761 4.27347 11.5373 4.86874C11.6366 4.93737 11.7298 5.01471 11.8167 5.10052C11.9541 4.75304 12.0671 4.38227 12.158 4.00996C12.3513 3.21812 12.4314 2.47585 12.4511 2.05348C12.468 1.69316 12.7737 1.41473 13.134 1.43157ZM11.1079 6.34066C11.0087 6.13419 10.8909 6.00992 10.7945 5.94328C10.5251 5.75705 10.2289 5.84378 10.0956 6.04911C9.95258 6.26928 10.0282 6.56208 10.2313 6.69738C10.3134 6.75208 10.4187 6.77984 10.5584 6.7408C10.6848 6.70547 10.8783 6.60288 11.1079 6.34066Z"
                                        fill="url(#paint27_radial_693_428)"
                                    />
                                    <path fill-rule="evenodd" clip-rule="evenodd" d="M9.5161 15.5417C9.0457 15.2817 8.55538 14.9667 8.06219 14.603C8.80906 13.6772 10.1432 12.463 11.8827 11.5862C14.741 10.1454 17.8925 10.9274 19.1766 11.4365C19.6178 11.6114 19.8337 12.1109 19.6588 12.5521C19.4839 12.9933 18.9844 13.2092 18.5432 13.0343C17.4426 12.5979 14.8688 12.0058 12.6564 13.121C11.1972 13.8565 10.1122 14.8454 9.5161 15.5417Z" fill="url(#paint28_linear_693_428)" />
                                    <path fill-rule="evenodd" clip-rule="evenodd" d="M9.5161 15.5417C9.0457 15.2817 8.55538 14.9667 8.06219 14.603C8.80906 13.6772 10.1432 12.463 11.8827 11.5862C14.741 10.1454 17.8925 10.9274 19.1766 11.4365C19.6178 11.6114 19.8337 12.1109 19.6588 12.5521C19.4839 12.9933 18.9844 13.2092 18.5432 13.0343C17.4426 12.5979 14.8688 12.0058 12.6564 13.121C11.1972 13.8565 10.1122 14.8454 9.5161 15.5417Z" fill="url(#paint29_radial_693_428)" />
                                    <path fill-rule="evenodd" clip-rule="evenodd" d="M9.5161 15.5417C9.0457 15.2817 8.55538 14.9667 8.06219 14.603C8.80906 13.6772 10.1432 12.463 11.8827 11.5862C14.741 10.1454 17.8925 10.9274 19.1766 11.4365C19.6178 11.6114 19.8337 12.1109 19.6588 12.5521C19.4839 12.9933 18.9844 13.2092 18.5432 13.0343C17.4426 12.5979 14.8688 12.0058 12.6564 13.121C11.1972 13.8565 10.1122 14.8454 9.5161 15.5417Z" fill="url(#paint30_radial_693_428)" />
                                    <path fill-rule="evenodd" clip-rule="evenodd" d="M9.5161 15.5417C9.0457 15.2817 8.55538 14.9667 8.06219 14.603C8.80906 13.6772 10.1432 12.463 11.8827 11.5862C14.741 10.1454 17.8925 10.9274 19.1766 11.4365C19.6178 11.6114 19.8337 12.1109 19.6588 12.5521C19.4839 12.9933 18.9844 13.2092 18.5432 13.0343C17.4426 12.5979 14.8688 12.0058 12.6564 13.121C11.1972 13.8565 10.1122 14.8454 9.5161 15.5417Z" fill="url(#paint31_radial_693_428)" />
                                    <g filter="url(#filter4_i_693_428)">
                                        <path fill-rule="evenodd" clip-rule="evenodd" d="M7.00694 4.57417C6.77616 4.15944 6.25287 4.01032 5.83814 4.2411C5.4234 4.47187 5.27428 4.99517 5.50506 5.4099C5.85355 6.03618 6.28265 6.9203 6.33756 8.05872C6.38542 9.05084 6.1518 10.3091 5.20197 11.8185C5.53061 12.2535 5.92748 12.7042 6.38145 13.1519C7.72063 11.2039 8.12587 9.45908 8.05432 7.9759C7.98033 6.44219 7.39966 5.27993 7.00694 4.57417Z" fill="url(#paint32_radial_693_428)" />
                                        <path fill-rule="evenodd" clip-rule="evenodd" d="M7.00694 4.57417C6.77616 4.15944 6.25287 4.01032 5.83814 4.2411C5.4234 4.47187 5.27428 4.99517 5.50506 5.4099C5.85355 6.03618 6.28265 6.9203 6.33756 8.05872C6.38542 9.05084 6.1518 10.3091 5.20197 11.8185C5.53061 12.2535 5.92748 12.7042 6.38145 13.1519C7.72063 11.2039 8.12587 9.45908 8.05432 7.9759C7.98033 6.44219 7.39966 5.27993 7.00694 4.57417Z" fill="url(#paint33_radial_693_428)" />
                                    </g>
                                    <path
                                        d="M8.83789 5.6454C8.88011 5.54103 8.93345 5.43804 8.99867 5.33762C9.54208 4.50096 10.6746 4.27348 11.5358 4.86875C11.6351 4.93738 11.7284 5.01472 11.8153 5.10053C11.8433 5.02953 11.8704 4.95756 11.8964 4.88481C11.8977 4.88921 11.899 4.89358 11.9002 4.89794C11.7233 5.45519 11.3264 6.05172 11.1059 6.33951C11.0068 6.13374 10.8893 6.00981 10.7931 5.94329C10.5237 5.75706 10.2275 5.84379 10.0941 6.04912C10.089 6.05711 10.0841 6.06519 10.0794 6.07336L8.83789 5.6454Z"
                                        fill="url(#paint34_radial_693_428)"
                                    />
                                    <path
                                        d="M8.83789 5.6454C8.88011 5.54103 8.93345 5.43804 8.99867 5.33762C9.54208 4.50096 10.6746 4.27348 11.5358 4.86875C11.6351 4.93738 11.7284 5.01472 11.8153 5.10053C11.8433 5.02953 11.8704 4.95756 11.8964 4.88481C11.8977 4.88921 11.899 4.89358 11.9002 4.89794C11.7233 5.45519 11.3264 6.05172 11.1059 6.33951C11.0068 6.13374 10.8893 6.00981 10.7931 5.94329C10.5237 5.75706 10.2275 5.84379 10.0941 6.04912C10.089 6.05711 10.0841 6.06519 10.0794 6.07336L8.83789 5.6454Z"
                                        fill="url(#paint35_radial_693_428)"
                                    />
                                    <g filter="url(#filter5_i_693_428)">
                                        <path d="M12.5411 6.57825C12.6443 7.12551 12.647 7.7712 12.5337 8.50539C12.4787 8.86188 12.1451 9.10626 11.7886 9.05124C11.4321 8.99622 11.1877 8.66263 11.2427 8.30614C11.268 8.14211 11.286 7.9885 11.2976 7.84471C11.9727 7.42085 12.4184 6.85688 12.5411 6.57825Z" fill="#44B6FF" />
                                    </g>
                                    <path d="M12.5411 6.57825C12.6443 7.12551 12.647 7.7712 12.5337 8.50539C12.4787 8.86188 12.1451 9.10626 11.7886 9.05124C11.4321 8.99622 11.1877 8.66263 11.2427 8.30614C11.268 8.14211 11.286 7.9885 11.2976 7.84471C11.9727 7.42085 12.4184 6.85688 12.5411 6.57825Z" fill="url(#paint36_radial_693_428)" />
                                    <g filter="url(#filter6_f_693_428)">
                                        <path d="M11.3779 5.61816C11.1953 5.3711 10.6099 4.93066 9.87401 5.38718C9.62716 5.54033 9.48192 6.11767 9.59471 6.50976" stroke="url(#paint37_linear_693_428)" stroke-width="0.3" stroke-linecap="round" />
                                    </g>
                                    <g filter="url(#filter7_f_693_428)">
                                        <path d="M13.3867 2.07324C13.3294 3.11165 12.8797 5.5623 11.5391 7.05762" stroke="url(#paint38_linear_693_428)" stroke-width="0.3" stroke-linecap="round" />
                                    </g>
                                    <defs>
                                        <filter id="filter0_i_693_428" x="1.76965" y="7.87068" width="11.7987" height="12.7267" filterUnits="userSpaceOnUse" color-interpolation-filters="sRGB">
                                            <feFlood flood-opacity="0" result="BackgroundImageFix" />
                                            <feBlend mode="normal" in="SourceGraphic" in2="BackgroundImageFix" result="shape" />
                                            <feColorMatrix in="SourceAlpha" type="matrix" values="0 0 0 0 0 0 0 0 0 0 0 0 0 0 0 0 0 0 127 0" result="hardAlpha" />
                                            <feOffset dy="-0.5" />
                                            <feGaussianBlur stdDeviation="0.5" />
                                            <feComposite in2="hardAlpha" operator="arithmetic" k2="-1" k3="1" />
                                            <feColorMatrix type="matrix" values="0 0 0 0 0.92549 0 0 0 0 0.34902 0 0 0 0 0.384314 0 0 0 1 0" />
                                            <feBlend mode="normal" in2="shape" result="effect1_innerShadow_693_428" />
                                        </filter>
                                        <filter id="filter1_f_693_428" x="3.07288" y="8.034" width="10.7643" height="9.5397" filterUnits="userSpaceOnUse" color-interpolation-filters="sRGB">
                                            <feFlood flood-opacity="0" result="BackgroundImageFix" />
                                            <feBlend mode="normal" in="SourceGraphic" in2="BackgroundImageFix" result="shape" />
                                            <feGaussianBlur stdDeviation="0.25" result="effect1_foregroundBlur_693_428" />
                                        </filter>
                                        <filter id="filter2_f_693_428" x="3.94539" y="8.4105" width="9.3718" height="8.18589" filterUnits="userSpaceOnUse" color-interpolation-filters="sRGB">
                                            <feFlood flood-opacity="0" result="BackgroundImageFix" />
                                            <feBlend mode="normal" in="SourceGraphic" in2="BackgroundImageFix" result="shape" />
                                            <feGaussianBlur stdDeviation="0.1" result="effect1_foregroundBlur_693_428" />
                                        </filter>
                                        <filter id="filter3_i_693_428" x="13.5296" y="7.20027" width="6.76422" height="3.20567" filterUnits="userSpaceOnUse" color-interpolation-filters="sRGB">
                                            <feFlood flood-opacity="0" result="BackgroundImageFix" />
                                            <feBlend mode="normal" in="SourceGraphic" in2="BackgroundImageFix" result="shape" />
                                            <feColorMatrix in="SourceAlpha" type="matrix" values="0 0 0 0 0 0 0 0 0 0 0 0 0 0 0 0 0 0 127 0" result="hardAlpha" />
                                            <feOffset dx="0.25" dy="-0.25" />
                                            <feGaussianBlur stdDeviation="0.25" />
                                            <feComposite in2="hardAlpha" operator="arithmetic" k2="-1" k3="1" />
                                            <feColorMatrix type="matrix" values="0 0 0 0 0.721569 0 0 0 0 0.270588 0 0 0 0 0.470588 0 0 0 1 0" />
                                            <feBlend mode="normal" in2="shape" result="effect1_innerShadow_693_428" />
                                        </filter>
                                        <filter id="filter4_i_693_428" x="5.20197" y="4.13251" width="3.01023" height="9.26936" filterUnits="userSpaceOnUse" color-interpolation-filters="sRGB">
                                            <feFlood flood-opacity="0" result="BackgroundImageFix" />
                                            <feBlend mode="normal" in="SourceGraphic" in2="BackgroundImageFix" result="shape" />
                                            <feColorMatrix in="SourceAlpha" type="matrix" values="0 0 0 0 0 0 0 0 0 0 0 0 0 0 0 0 0 0 127 0" result="hardAlpha" />
                                            <feOffset dx="0.15" dy="0.25" />
                                            <feGaussianBlur stdDeviation="0.5" />
                                            <feComposite in2="hardAlpha" operator="arithmetic" k2="-1" k3="1" />
                                            <feColorMatrix type="matrix" values="0 0 0 0 0.721569 0 0 0 0 0.184314 0 0 0 0 0.447059 0 0 0 1 0" />
                                            <feBlend mode="normal" in2="shape" result="effect1_innerShadow_693_428" />
                                        </filter>
                                        <filter id="filter5_i_693_428" x="11.235" y="6.32825" width="1.88361" height="2.73073" filterUnits="userSpaceOnUse" color-interpolation-filters="sRGB">
                                            <feFlood flood-opacity="0" result="BackgroundImageFix" />
                                            <feBlend mode="normal" in="SourceGraphic" in2="BackgroundImageFix" result="shape" />
                                            <feColorMatrix in="SourceAlpha" type="matrix" values="0 0 0 0 0 0 0 0 0 0 0 0 0 0 0 0 0 0 127 0" result="hardAlpha" />
                                            <feOffset dx="0.5" dy="-0.25" />
                                            <feGaussianBlur stdDeviation="0.325" />
                                            <feComposite in2="hardAlpha" operator="arithmetic" k2="-1" k3="1" />
                                            <feColorMatrix type="matrix" values="0 0 0 0 0.239216 0 0 0 0 0.439216 0 0 0 0 0.768627 0 0 0 1 0" />
                                            <feBlend mode="normal" in2="shape" result="effect1_innerShadow_693_428" />
                                        </filter>
                                        <filter id="filter6_f_693_428" x="9.10588" y="4.7387" width="2.72207" height="2.22109" filterUnits="userSpaceOnUse" color-interpolation-filters="sRGB">
                                            <feFlood flood-opacity="0" result="BackgroundImageFix" />
                                            <feBlend mode="normal" in="SourceGraphic" in2="BackgroundImageFix" result="shape" />
                                            <feGaussianBlur stdDeviation="0.15" result="effect1_foregroundBlur_693_428" />
                                        </filter>
                                        <filter id="filter7_f_693_428" x="10.939" y="1.47323" width="3.04771" height="6.18438" filterUnits="userSpaceOnUse" color-interpolation-filters="sRGB">
                                            <feFlood flood-opacity="0" result="BackgroundImageFix" />
                                            <feBlend mode="normal" in="SourceGraphic" in2="BackgroundImageFix" result="shape" />
                                            <feGaussianBlur stdDeviation="0.225" result="effect1_foregroundBlur_693_428" />
                                        </filter>
                                        <linearGradient id="paint0_linear_693_428" x1="2.90234" y1="13.7392" x2="8.44531" y2="18.5517" gradientUnits="userSpaceOnUse">
                                            <stop stop-color="#B3843C" />
                                            <stop offset="1" stop-color="#F17A61" />
                                        </linearGradient>
                                        <linearGradient id="paint1_linear_693_428" x1="2.28984" y1="14.484" x2="3.91211" y2="14.8135" gradientUnits="userSpaceOnUse">
                                            <stop stop-color="#B1853B" />
                                            <stop offset="1" stop-color="#B1853B" stop-opacity="0" />
                                        </linearGradient>
                                        <linearGradient id="paint2_linear_693_428" x1="13.5683" y1="16.3818" x2="10.8301" y2="16.833" gradientUnits="userSpaceOnUse">
                                            <stop stop-color="#F9C26C" />
                                            <stop offset="1" stop-color="#F9C26C" stop-opacity="0" />
                                        </linearGradient>
                                        <linearGradient id="paint3_linear_693_428" x1="7.66899" y1="8.51854" x2="5.91015" y2="11.5049" gradientUnits="userSpaceOnUse">
                                            <stop stop-color="#E6BF69" />
                                            <stop offset="1" stop-color="#E6BF69" stop-opacity="0" />
                                        </linearGradient>
                                        <linearGradient id="paint4_linear_693_428" x1="8.47218" y1="14.9901" x2="9.17963" y2="10.2597" gradientUnits="userSpaceOnUse">
                                            <stop stop-color="#FCCB57" />
                                            <stop offset="1" stop-color="#F5BD55" />
                                        </linearGradient>
                                        <linearGradient id="paint5_linear_693_428" x1="3.53889" y1="12.2819" x2="14.8688" y2="12.8357" gradientUnits="userSpaceOnUse">
                                            <stop stop-color="#F3AB2C" />
                                            <stop offset="1" stop-color="#B57F1E" />
                                        </linearGradient>
                                        <radialGradient id="paint6_radial_693_428" cx="0" cy="0" r="1" gradientUnits="userSpaceOnUse" gradientTransform="translate(5.81188 14.1081) rotate(-109.125) scale(4.45328 1.24731)">
                                            <stop offset="0.423414" stop-color="#CA851E" />
                                            <stop offset="1" stop-color="#CA851E" stop-opacity="0" />
                                        </radialGradient>
                                        <radialGradient id="paint7_radial_693_428" cx="0" cy="0" r="1" gradientUnits="userSpaceOnUse" gradientTransform="translate(10.4744 14.1707) rotate(-73.0972) scale(4.47531 2.62078)">
                                            <stop stop-color="#BC7F28" />
                                            <stop offset="1" stop-color="#BC7F28" stop-opacity="0" />
                                        </radialGradient>
                                        <radialGradient id="paint8_radial_693_428" cx="0" cy="0" r="1" gradientUnits="userSpaceOnUse" gradientTransform="translate(10.6475 10.7744) rotate(138.668) scale(1.18739)">
                                            <stop stop-color="#5AC0FF" />
                                            <stop offset="1" stop-color="#3279B6" />
                                        </radialGradient>
                                        <radialGradient id="paint9_radial_693_428" cx="0" cy="0" r="1" gradientUnits="userSpaceOnUse" gradientTransform="translate(10.445 10.886) rotate(160.051) scale(1.19239 1.30701)">
                                            <stop offset="0.534713" stop-color="#3A619E" stop-opacity="0" />
                                            <stop offset="1" stop-color="#3A619E" />
                                        </radialGradient>
                                        <radialGradient id="paint10_radial_693_428" cx="0" cy="0" r="1" gradientUnits="userSpaceOnUse" gradientTransform="translate(17.5506 15.3985) rotate(134.569) scale(1.35955)">
                                            <stop stop-color="#FDD46C" />
                                            <stop offset="1" stop-color="#F09C53" />
                                        </radialGradient>
                                        <radialGradient id="paint11_radial_693_428" cx="0" cy="0" r="1" gradientUnits="userSpaceOnUse" gradientTransform="translate(17.2253 15.3262) rotate(100.827) scale(1.34669)">
                                            <stop offset="0.792052" stop-color="#E76260" stop-opacity="0" />
                                            <stop offset="0.964251" stop-color="#E76260" />
                                        </radialGradient>
                                        <radialGradient id="paint12_radial_693_428" cx="0" cy="0" r="1" gradientUnits="userSpaceOnUse" gradientTransform="translate(17.4659 15.8845) rotate(-147.558) scale(1.3638 1.60606)">
                                            <stop offset="0.482355" stop-color="#AA885A" stop-opacity="0" />
                                            <stop offset="0.90682" stop-color="#AA885A" />
                                        </radialGradient>
                                        <radialGradient id="paint13_radial_693_428" cx="0" cy="0" r="1" gradientUnits="userSpaceOnUse" gradientTransform="translate(16.9708 4.50138) rotate(132.387) scale(1.41633)">
                                            <stop stop-color="#FF46AA" />
                                            <stop offset="1" stop-color="#E3189D" />
                                        </radialGradient>
                                        <radialGradient id="paint14_radial_693_428" cx="0" cy="0" r="1" gradientUnits="userSpaceOnUse" gradientTransform="translate(16.7275 4.97363) rotate(-173.29) scale(1.28714 1.72259)">
                                            <stop offset="0.522105" stop-color="#B63173" stop-opacity="0" />
                                            <stop offset="1" stop-color="#B63173" />
                                        </radialGradient>
                                        <radialGradient id="paint15_radial_693_428" cx="0" cy="0" r="1" gradientUnits="userSpaceOnUse" gradientTransform="translate(7.41069 1.98385) rotate(139.574) scale(1.26581)">
                                            <stop stop-color="#FFF46F" />
                                            <stop offset="1" stop-color="#EFB93C" />
                                        </radialGradient>
                                        <radialGradient id="paint16_radial_693_428" cx="0" cy="0" r="1" gradientUnits="userSpaceOnUse" gradientTransform="translate(7.22964 2.181) rotate(-178.519) scale(1.31631 1.2533)">
                                            <stop offset="0.558644" stop-color="#AA904B" stop-opacity="0" />
                                            <stop offset="0.943632" stop-color="#AA904B" />
                                        </radialGradient>
                                        <radialGradient id="paint17_radial_693_428" cx="0" cy="0" r="1" gradientUnits="userSpaceOnUse" gradientTransform="translate(7.08107 1.84766) rotate(102.339) scale(1.40751)">
                                            <stop offset="0.771901" stop-color="#C47072" stop-opacity="0" />
                                            <stop offset="1" stop-color="#C47072" />
                                        </radialGradient>
                                        <radialGradient id="paint18_radial_693_428" cx="0" cy="0" r="1" gradientUnits="userSpaceOnUse" gradientTransform="translate(3.98058 5.25333) rotate(132.387) scale(1.41633)">
                                            <stop stop-color="#FF46AA" />
                                            <stop offset="1" stop-color="#E3189D" />
                                        </radialGradient>
                                        <radialGradient id="paint19_radial_693_428" cx="0" cy="0" r="1" gradientUnits="userSpaceOnUse" gradientTransform="translate(3.73737 5.72559) rotate(-173.29) scale(1.28714 1.72259)">
                                            <stop offset="0.522105" stop-color="#B63173" stop-opacity="0" />
                                            <stop offset="1" stop-color="#B63173" />
                                        </radialGradient>
                                        <radialGradient id="paint20_radial_693_428" cx="0" cy="0" r="1" gradientUnits="userSpaceOnUse" gradientTransform="translate(7.71486 17.2412) rotate(133.21) scale(2.91824 6.38928)">
                                            <stop stop-color="#3365FF" />
                                            <stop offset="1" stop-color="#356DB9" />
                                        </radialGradient>
                                        <radialGradient id="paint21_radial_693_428" cx="0" cy="0" r="1" gradientUnits="userSpaceOnUse" gradientTransform="translate(5.09377 19.2607) rotate(131.598) scale(1.80137 4.5567)">
                                            <stop stop-color="#3365FF" />
                                            <stop offset="1" stop-color="#356DB9" />
                                        </radialGradient>
                                        <radialGradient id="paint22_radial_693_428" cx="0" cy="0" r="1" gradientUnits="userSpaceOnUse" gradientTransform="translate(18.9297 8.1748) rotate(168.283) scale(2.96212 1.1051)">
                                            <stop stop-color="#FF3BA9" />
                                            <stop offset="1" stop-color="#F422A7" />
                                        </radialGradient>
                                        <radialGradient id="paint23_radial_693_428" cx="0" cy="0" r="1" gradientUnits="userSpaceOnUse" gradientTransform="translate(16.7867 10.5381) rotate(-127.355) scale(3.05415 5.44313)">
                                            <stop offset="0.752144" stop-color="#B8306F" stop-opacity="0" />
                                            <stop offset="1" stop-color="#B8306F" />
                                        </radialGradient>
                                        <linearGradient id="paint24_linear_693_428" x1="13.1053" y1="1.43085" x2="10.024" y2="8.81574" gradientUnits="userSpaceOnUse">
                                            <stop stop-color="#20B2EE" />
                                            <stop offset="1" stop-color="#2689DA" />
                                        </linearGradient>
                                        <radialGradient id="paint25_radial_693_428" cx="0" cy="0" r="1" gradientUnits="userSpaceOnUse" gradientTransform="translate(12.429 3.82982) rotate(128.217) scale(5.33544 3.26357)">
                                            <stop offset="0.80204" stop-color="#4274D2" stop-opacity="0" />
                                            <stop offset="0.950917" stop-color="#4274D2" />
                                        </radialGradient>
                                        <radialGradient id="paint26_radial_693_428" cx="0" cy="0" r="1" gradientUnits="userSpaceOnUse" gradientTransform="translate(12.1621 3.21191) rotate(12.0948) scale(0.769024 2.58167)">
                                            <stop stop-color="#4D8EC0" />
                                            <stop offset="1" stop-color="#4D8EC0" stop-opacity="0" />
                                        </radialGradient>
                                        <radialGradient id="paint27_radial_693_428" cx="0" cy="0" r="1" gradientUnits="userSpaceOnUse" gradientTransform="translate(13.6875 1.54687) rotate(141.953) scale(0.941214 0.846215)">
                                            <stop stop-color="#5ADEFF" />
                                            <stop offset="1" stop-color="#5ADEFF" stop-opacity="0" />
                                        </radialGradient>
                                        <linearGradient id="paint28_linear_693_428" x1="9.93462" y1="14.9153" x2="19.1534" y2="12.4993" gradientUnits="userSpaceOnUse">
                                            <stop stop-color="#3797E2" />
                                            <stop offset="1" stop-color="#37AEFF" />
                                        </linearGradient>
                                        <radialGradient id="paint29_radial_693_428" cx="0" cy="0" r="1" gradientUnits="userSpaceOnUse" gradientTransform="translate(13.3446 16.4227) rotate(-129.838) scale(5.48626 13.7525)">
                                            <stop offset="0.622552" stop-color="#526579" stop-opacity="0" />
                                            <stop offset="0.962126" stop-color="#526579" />
                                        </radialGradient>
                                        <radialGradient id="paint30_radial_693_428" cx="0" cy="0" r="1" gradientUnits="userSpaceOnUse" gradientTransform="translate(16.4259 13.4618) rotate(94.3987) scale(1.8832 3.78619)">
                                            <stop offset="0.396078" stop-color="#6972FF" />
                                            <stop offset="1" stop-color="#6972FF" stop-opacity="0" />
                                        </radialGradient>
                                        <radialGradient id="paint31_radial_693_428" cx="0" cy="0" r="1" gradientUnits="userSpaceOnUse" gradientTransform="translate(19.2183 11.879) rotate(-68.8186) scale(0.516333 0.407189)">
                                            <stop stop-color="#55BFFF" />
                                            <stop offset="1" stop-color="#55BFFF" stop-opacity="0" />
                                        </radialGradient>
                                        <radialGradient id="paint32_radial_693_428" cx="0" cy="0" r="1" gradientUnits="userSpaceOnUse" gradientTransform="translate(7.45508 4.42492) rotate(99.4229) scale(5.02689 1.88327)">
                                            <stop stop-color="#FF3AAA" />
                                            <stop offset="1" stop-color="#FD2F89" />
                                        </radialGradient>
                                        <radialGradient id="paint33_radial_693_428" cx="0" cy="0" r="1" gradientUnits="userSpaceOnUse" gradientTransform="translate(4.83051 9.60857) rotate(31.1757) scale(3.30581 10.3746)">
                                            <stop offset="0.803698" stop-color="#DB2C6E" stop-opacity="0" />
                                            <stop offset="1" stop-color="#DB2C6E" />
                                        </radialGradient>
                                        <radialGradient id="paint34_radial_693_428" cx="0" cy="0" r="1" gradientUnits="userSpaceOnUse" gradientTransform="translate(11.2884 6.54473) rotate(-119.23) scale(1.88261 1.40727)">
                                            <stop stop-color="#336BAF" />
                                            <stop offset="1" stop-color="#336BAF" stop-opacity="0" />
                                        </radialGradient>
                                        <radialGradient id="paint35_radial_693_428" cx="0" cy="0" r="1" gradientUnits="userSpaceOnUse" gradientTransform="translate(11.9002 5.12396) rotate(-127.657) scale(1.27539 0.51673)">
                                            <stop stop-color="#49A4D4" />
                                            <stop offset="1" stop-color="#49A4D4" stop-opacity="0" />
                                        </radialGradient>
                                        <radialGradient id="paint36_radial_693_428" cx="0" cy="0" r="1" gradientUnits="userSpaceOnUse" gradientTransform="translate(12.4737 6.52051) rotate(94.8498) scale(1.77883 0.989998)">
                                            <stop stop-color="#4AB5F8" />
                                            <stop offset="1" stop-color="#4AB5F8" stop-opacity="0" />
                                        </radialGradient>
                                        <linearGradient id="paint37_linear_693_428" x1="9.34764" y1="5.63014" x2="11.2598" y2="5.16158" gradientUnits="userSpaceOnUse">
                                            <stop stop-color="#4EAFF2" />
                                            <stop offset="1" stop-color="#4EAFF2" stop-opacity="0" />
                                        </linearGradient>
                                        <linearGradient id="paint38_linear_693_428" x1="13.2363" y1="1.34277" x2="10.5508" y2="7.53027" gradientUnits="userSpaceOnUse">
                                            <stop stop-color="#5BDDFF" />
                                            <stop offset="1" stop-color="#5BDDFF" stop-opacity="0" />
                                        </linearGradient>
                                    </defs>
                                </svg>