<svg xmlns="http://www.w3.org/2000/svg" width="22" height="22" viewBox="0 0 22 22" fill="none">
                                    <path d="M2.95247 13.0628C2.84622 13.0418 2.74725 13.1231 2.74725 13.2314V15.9311C2.74725 16.4595 3.04999 16.9411 3.5261 17.1701L9.62202 20.1032C10.4697 20.511 11.457 20.511 12.3047 20.1032L18.4009 17.1701C18.877 16.9411 19.1798 16.4594 19.1798 15.9311V13.2314C19.1798 13.1231 19.0808 13.0418 18.9746 13.0628L10.9637 14.647L2.95247 13.0628Z" fill="url(#paint0_linear_693_315)" />
                                    <path d="M10.9513 8.19031L3.14232 11.8195C2.89972 11.9323 2.74457 12.1755 2.74457 12.443V12.9919C2.74457 13.0449 2.77499 13.0932 2.82278 13.116L10.073 16.5802C10.6353 16.8489 11.289 16.8489 11.8514 16.5802L19.1016 13.116C19.1494 13.0932 19.1798 13.0449 19.1798 12.9919V12.443C19.1798 12.1755 19.0246 11.9323 18.782 11.8195L10.9731 8.19031V8.18018L10.9622 8.18525L10.9513 8.18018V8.19031Z" fill="url(#paint1_linear_693_315)" />
                                    <path d="M10.9513 8.19031L3.14232 11.8195C2.89972 11.9323 2.74457 12.1755 2.74457 12.443V12.9919C2.74457 13.0449 2.77499 13.0932 2.82278 13.116L10.073 16.5802C10.6353 16.8489 11.289 16.8489 11.8514 16.5802L19.1016 13.116C19.1494 13.0932 19.1798 13.0449 19.1798 12.9919V12.443C19.1798 12.1755 19.0246 11.9323 18.782 11.8195L10.9731 8.19031V8.18018L10.9622 8.18525L10.9513 8.18018V8.19031Z" fill="url(#paint2_linear_693_315)" />
                                    <path d="M10.9513 8.19031L3.14232 11.8195C2.89972 11.9323 2.74457 12.1755 2.74457 12.443V12.9919C2.74457 13.0449 2.77499 13.0932 2.82278 13.116L10.073 16.5802C10.6353 16.8489 11.289 16.8489 11.8514 16.5802L19.1016 13.116C19.1494 13.0932 19.1798 13.0449 19.1798 12.9919V12.443C19.1798 12.1755 19.0246 11.9323 18.782 11.8195L10.9731 8.19031V8.18018L10.9622 8.18525L10.9513 8.18018V8.19031Z" fill="url(#paint3_linear_693_315)" />
                                    <path d="M10.9513 8.19031L3.14232 11.8195C2.89972 11.9323 2.74457 12.1755 2.74457 12.443V12.9919C2.74457 13.0449 2.77499 13.0932 2.82278 13.116L10.073 16.5802C10.6353 16.8489 11.289 16.8489 11.8514 16.5802L19.1016 13.116C19.1494 13.0932 19.1798 13.0449 19.1798 12.9919V12.443C19.1798 12.1755 19.0246 11.9323 18.782 11.8195L10.9731 8.19031V8.18018L10.9622 8.18525L10.9513 8.18018V8.19031Z" fill="url(#paint4_linear_693_315)" />
                                    <path d="M10.9513 8.19031L3.14232 11.8195C2.89972 11.9323 2.74457 12.1755 2.74457 12.443V12.9919C2.74457 13.0449 2.77499 13.0932 2.82278 13.116L10.073 16.5802C10.6353 16.8489 11.289 16.8489 11.8514 16.5802L19.1016 13.116C19.1494 13.0932 19.1798 13.0449 19.1798 12.9919V12.443C19.1798 12.1755 19.0246 11.9323 18.782 11.8195L10.9731 8.19031V8.18018L10.9622 8.18525L10.9513 8.18018V8.19031Z" fill="url(#paint5_radial_693_315)" />
                                    <g filter="url(#filter0_f_693_315)">
                                        <path d="M11.8188 16.645L18.9301 13.2075" stroke="url(#paint6_linear_693_315)" stroke-width="0.1375" stroke-linecap="round" />
                                    </g>
                                    <g filter="url(#filter1_f_693_315)">
                                        <path d="M10.7847 16.7339C7.88631 16.1116 7.50993 13.3555 7.68404 12.0552L14.3188 12.1663C14.3484 13.9482 13.1741 16.3561 10.7847 16.7339Z" fill="url(#paint7_linear_693_315)" />
                                        <path d="M10.7847 16.7339C7.88631 16.1116 7.50993 13.3555 7.68404 12.0552L14.3188 12.1663C14.3484 13.9482 13.1741 16.3561 10.7847 16.7339Z" fill="url(#paint8_radial_693_315)" />
                                    </g>
                                    <g filter="url(#filter2_f_693_315)">
                                        <path d="M5.46026 13.8306C4.64815 13.6345 4.54269 12.7659 4.59148 12.3562L6.45048 12.3912C6.45879 12.9527 6.12975 13.7115 5.46026 13.8306Z" fill="url(#paint9_linear_693_315)" />
                                    </g>
                                    <path
                                        d="M3.14775 12.6875L10.378 16.0477C10.745 16.2183 11.1685 16.2185 11.5357 16.0483L18.7875 12.6875C18.93 12.6212 19.0424 12.5099 19.1109 12.375C19.1588 12.4696 19.1852 12.5757 19.1852 12.686V13.2349C19.1852 13.2879 19.1548 13.3362 19.107 13.359L11.8568 16.8232C11.2944 17.0919 10.6408 17.0919 10.0784 16.8232L2.82822 13.359C2.78042 13.3362 2.75 13.2879 2.75 13.2349V12.686C2.75 12.5757 2.77637 12.4696 2.82436 12.375C2.89278 12.5099 3.00516 12.6212 3.14775 12.6875Z"
                                        fill="url(#paint10_linear_693_315)"
                                    />
                                    <g filter="url(#filter3_i_693_315)">
                                        <path d="M7.66759 11.9324C7.65488 11.9826 7.64838 12.0334 7.64838 12.085C7.64838 12.8651 9.14171 13.4976 10.9838 13.4976C12.8259 13.4976 14.3193 12.8651 14.3193 12.085C14.3193 12.0334 14.3128 11.9826 14.3001 11.9324C14.0091 10.3656 12.635 9.1792 10.9838 9.1792C9.33268 9.1792 7.9586 10.3656 7.66759 11.9324Z" fill="#4C2F5A" />
                                        <path d="M7.66759 11.9324C7.65488 11.9826 7.64838 12.0334 7.64838 12.085C7.64838 12.8651 9.14171 13.4976 10.9838 13.4976C12.8259 13.4976 14.3193 12.8651 14.3193 12.085C14.3193 12.0334 14.3128 11.9826 14.3001 11.9324C14.0091 10.3656 12.635 9.1792 10.9838 9.1792C9.33268 9.1792 7.9586 10.3656 7.66759 11.9324Z" fill="url(#paint11_radial_693_315)" />
                                        <path d="M7.66759 11.9324C7.65488 11.9826 7.64838 12.0334 7.64838 12.085C7.64838 12.8651 9.14171 13.4976 10.9838 13.4976C12.8259 13.4976 14.3193 12.8651 14.3193 12.085C14.3193 12.0334 14.3128 11.9826 14.3001 11.9324C14.0091 10.3656 12.635 9.1792 10.9838 9.1792C9.33268 9.1792 7.9586 10.3656 7.66759 11.9324Z" fill="url(#paint12_radial_693_315)" />
                                        <path d="M7.66759 11.9324C7.65488 11.9826 7.64838 12.0334 7.64838 12.085C7.64838 12.8651 9.14171 13.4976 10.9838 13.4976C12.8259 13.4976 14.3193 12.8651 14.3193 12.085C14.3193 12.0334 14.3128 11.9826 14.3001 11.9324C14.0091 10.3656 12.635 9.1792 10.9838 9.1792C9.33268 9.1792 7.9586 10.3656 7.66759 11.9324Z" fill="url(#paint13_radial_693_315)" />
                                        <path d="M7.66759 11.9324C7.65488 11.9826 7.64838 12.0334 7.64838 12.085C7.64838 12.8651 9.14171 13.4976 10.9838 13.4976C12.8259 13.4976 14.3193 12.8651 14.3193 12.085C14.3193 12.0334 14.3128 11.9826 14.3001 11.9324C14.0091 10.3656 12.635 9.1792 10.9838 9.1792C9.33268 9.1792 7.9586 10.3656 7.66759 11.9324Z" fill="url(#paint14_radial_693_315)" />
                                    </g>
                                    <path d="M7.66759 11.9324C7.65488 11.9826 7.64838 12.0334 7.64838 12.085C7.64838 12.8651 9.14171 13.4976 10.9838 13.4976C12.8259 13.4976 14.3193 12.8651 14.3193 12.085C14.3193 12.0334 14.3128 11.9826 14.3001 11.9324C14.0091 10.3656 12.635 9.1792 10.9838 9.1792C9.33268 9.1792 7.9586 10.3656 7.66759 11.9324Z" fill="url(#paint15_radial_693_315)" />
                                    <path d="M7.66759 11.9324C7.65488 11.9826 7.64838 12.0334 7.64838 12.085C7.64838 12.8651 9.14171 13.4976 10.9838 13.4976C12.8259 13.4976 14.3193 12.8651 14.3193 12.085C14.3193 12.0334 14.3128 11.9826 14.3001 11.9324C14.0091 10.3656 12.635 9.1792 10.9838 9.1792C9.33268 9.1792 7.9586 10.3656 7.66759 11.9324Z" fill="url(#paint16_radial_693_315)" />
                                    <g filter="url(#filter4_f_693_315)">
                                        <path d="M5.49188 11.7493C6.02139 11.7493 6.45062 12.0333 6.45062 12.5361C6.45062 12.8342 6.02139 12.9631 5.49188 12.9631C4.96238 12.9631 4.53314 12.8477 4.53314 12.5361C4.53314 12.0333 4.96238 11.7493 5.49188 11.7493Z" fill="#50416C" />
                                    </g>
                                    <path d="M5.49188 11.6714C5.99469 11.6714 6.40228 11.9555 6.40228 12.4583C6.40228 12.7563 5.99469 12.8853 5.49188 12.8853C4.98908 12.8853 4.58148 12.7698 4.58148 12.4583C4.58148 11.9555 4.98908 11.6714 5.49188 11.6714Z" fill="url(#paint17_radial_693_315)" />
                                    <path d="M5.49188 11.6714C5.99469 11.6714 6.40228 11.9555 6.40228 12.4583C6.40228 12.7563 5.99469 12.8853 5.49188 12.8853C4.98908 12.8853 4.58148 12.7698 4.58148 12.4583C4.58148 11.9555 4.98908 11.6714 5.49188 11.6714Z" fill="url(#paint18_radial_693_315)" />
                                    <path d="M5.49188 11.6714C5.99469 11.6714 6.40228 11.9555 6.40228 12.4583C6.40228 12.7563 5.99469 12.8853 5.49188 12.8853C4.98908 12.8853 4.58148 12.7698 4.58148 12.4583C4.58148 11.9555 4.98908 11.6714 5.49188 11.6714Z" fill="url(#paint19_radial_693_315)" />
                                    <path d="M10.2748 6.77832C10.2748 6.40159 10.5802 6.09619 10.957 6.09619C11.3337 6.09619 11.6391 6.40159 11.6391 6.77832V9.63037C11.6391 10.0071 11.3337 10.1245 10.957 10.1245C10.5802 10.1245 10.2748 10.0071 10.2748 9.63037V6.77832Z" fill="url(#paint20_linear_693_315)" />
                                    <path d="M10.2748 6.77832C10.2748 6.40159 10.5802 6.09619 10.957 6.09619C11.3337 6.09619 11.6391 6.40159 11.6391 6.77832V9.63037C11.6391 10.0071 11.3337 10.1245 10.957 10.1245C10.5802 10.1245 10.2748 10.0071 10.2748 9.63037V6.77832Z" fill="url(#paint21_radial_693_315)" />
                                    <path d="M10.2748 6.77832C10.2748 6.40159 10.5802 6.09619 10.957 6.09619C11.3337 6.09619 11.6391 6.40159 11.6391 6.77832V9.63037C11.6391 10.0071 11.3337 10.1245 10.957 10.1245C10.5802 10.1245 10.2748 10.0071 10.2748 9.63037V6.77832Z" fill="url(#paint22_radial_693_315)" />
                                    <circle cx="10.9838" cy="4.39893" r="3.14746" fill="url(#paint23_radial_693_315)" />
                                    <circle cx="10.9838" cy="4.39893" r="3.14746" fill="url(#paint24_radial_693_315)" />
                                    <circle cx="10.9838" cy="4.39893" r="3.14746" fill="url(#paint25_radial_693_315)" />
                                    <g filter="url(#filter5_f_693_315)">
                                        <path d="M18.9301 12.2842L11.4964 15.7688C11.415 15.803 11.1987 15.8694 10.9838 15.8609" stroke="#7067A3" stroke-width="0.1375" stroke-linecap="round" />
                                    </g>
                                    <defs>
                                        <filter id="filter0_f_693_315" x="11.6125" y="13.0013" width="7.5239" height="3.85001" filterUnits="userSpaceOnUse" color-interpolation-filters="sRGB">
                                            <feFlood flood-opacity="0" result="BackgroundImageFix" />
                                            <feBlend mode="normal" in="SourceGraphic" in2="BackgroundImageFix" result="shape" />
                                            <feGaussianBlur stdDeviation="0.06875" result="effect1_foregroundBlur_693_315" />
                                        </filter>
                                        <filter id="filter1_f_693_315" x="7.13275" y="11.5396" width="7.70221" height="5.71002" filterUnits="userSpaceOnUse" color-interpolation-filters="sRGB">
                                            <feFlood flood-opacity="0" result="BackgroundImageFix" />
                                            <feBlend mode="normal" in="SourceGraphic" in2="BackgroundImageFix" result="shape" />
                                            <feGaussianBlur stdDeviation="0.257812" result="effect1_foregroundBlur_693_315" />
                                        </filter>
                                        <filter id="filter2_f_693_315" x="4.40961" y="12.1843" width="2.21289" height="1.81812" filterUnits="userSpaceOnUse" color-interpolation-filters="sRGB">
                                            <feFlood flood-opacity="0" result="BackgroundImageFix" />
                                            <feBlend mode="normal" in="SourceGraphic" in2="BackgroundImageFix" result="shape" />
                                            <feGaussianBlur stdDeviation="0.0859375" result="effect1_foregroundBlur_693_315" />
                                        </filter>
                                        <filter id="filter3_i_693_315" x="7.64838" y="9.11045" width="6.6709" height="4.38711" filterUnits="userSpaceOnUse" color-interpolation-filters="sRGB">
                                            <feFlood flood-opacity="0" result="BackgroundImageFix" />
                                            <feBlend mode="normal" in="SourceGraphic" in2="BackgroundImageFix" result="shape" />
                                            <feColorMatrix in="SourceAlpha" type="matrix" values="0 0 0 0 0 0 0 0 0 0 0 0 0 0 0 0 0 0 127 0" result="hardAlpha" />
                                            <feOffset dy="-0.06875" />
                                            <feGaussianBlur stdDeviation="0.1375" />
                                            <feComposite in2="hardAlpha" operator="arithmetic" k2="-1" k3="1" />
                                            <feColorMatrix type="matrix" values="0 0 0 0 0.14902 0 0 0 0 0.0862745 0 0 0 0 0.235294 0 0 0 1 0" />
                                            <feBlend mode="normal" in2="shape" result="effect1_innerShadow_693_315" />
                                        </filter>
                                        <filter id="filter4_f_693_315" x="4.43002" y="11.6461" width="2.12373" height="1.42012" filterUnits="userSpaceOnUse" color-interpolation-filters="sRGB">
                                            <feFlood flood-opacity="0" result="BackgroundImageFix" />
                                            <feBlend mode="normal" in="SourceGraphic" in2="BackgroundImageFix" result="shape" />
                                            <feGaussianBlur stdDeviation="0.0515625" result="effect1_foregroundBlur_693_315" />
                                        </filter>
                                        <filter id="filter5_f_693_315" x="10.8464" y="12.1467" width="8.22124" height="3.85237" filterUnits="userSpaceOnUse" color-interpolation-filters="sRGB">
                                            <feFlood flood-opacity="0" result="BackgroundImageFix" />
                                            <feBlend mode="normal" in="SourceGraphic" in2="BackgroundImageFix" result="shape" />
                                            <feGaussianBlur stdDeviation="0.034375" result="effect1_foregroundBlur_693_315" />
                                        </filter>
                                        <linearGradient id="paint0_linear_693_315" x1="3.69526" y1="16.6558" x2="18.1995" y2="16.6558" gradientUnits="userSpaceOnUse">
                                            <stop stop-color="#2F2137" />
                                            <stop offset="0.447917" stop-color="#38224A" />
                                            <stop offset="0.567708" stop-color="#5D3E7D" />
                                        </linearGradient>
                                        <linearGradient id="paint1_linear_693_315" x1="18.0414" y1="12.0259" x2="2.27191" y2="12.0259" gradientUnits="userSpaceOnUse">
                                            <stop stop-color="#615D8D" />
                                            <stop offset="1" stop-color="#5E5681" />
                                        </linearGradient>
                                        <linearGradient id="paint2_linear_693_315" x1="18.0414" y1="12.0259" x2="2.27191" y2="12.0259" gradientUnits="userSpaceOnUse">
                                            <stop stop-color="#615D8D" />
                                            <stop offset="1" stop-color="#5E5681" />
                                        </linearGradient>
                                        <linearGradient id="paint3_linear_693_315" x1="6.86389" y1="14.2169" x2="6.97652" y2="13.986" gradientUnits="userSpaceOnUse">
                                            <stop offset="0.268621" stop-color="#4F3A84" />
                                            <stop offset="1" stop-color="#534177" stop-opacity="0" />
                                        </linearGradient>
                                        <linearGradient id="paint4_linear_693_315" x1="14.658" y1="14.4366" x2="14.5003" y2="14.1043" gradientUnits="userSpaceOnUse">
                                            <stop offset="0.338143" stop-color="#6152A2" />
                                            <stop offset="1" stop-color="#5F5887" stop-opacity="0" />
                                        </linearGradient>
                                        <radialGradient id="paint5_radial_693_315" cx="0" cy="0" r="1" gradientUnits="userSpaceOnUse" gradientTransform="translate(11.2512 7.80084) rotate(90) scale(3.88803 6.56105)">
                                            <stop stop-color="#6D6F9E" />
                                            <stop offset="1" stop-color="#6D6F9E" stop-opacity="0" />
                                        </radialGradient>
                                        <linearGradient id="paint6_linear_693_315" x1="18.2348" y1="13.6802" x2="12.2729" y2="16.645" gradientUnits="userSpaceOnUse">
                                            <stop offset="0.896047" stop-color="#69597D" />
                                            <stop offset="1" stop-color="#69597D" stop-opacity="0" />
                                        </linearGradient>
                                        <linearGradient id="paint7_linear_693_315" x1="10.9838" y1="12.7134" x2="10.9838" y2="16.7339" gradientUnits="userSpaceOnUse">
                                            <stop stop-color="#4D4277" />
                                            <stop offset="1" stop-color="#4D4277" stop-opacity="0" />
                                        </linearGradient>
                                        <radialGradient id="paint8_radial_693_315" cx="0" cy="0" r="1" gradientUnits="userSpaceOnUse" gradientTransform="translate(10.9838 12.4556) rotate(90) scale(1.63281 3.62484)">
                                            <stop offset="0.328947" stop-color="#281E45" />
                                            <stop offset="1" stop-color="#281E45" stop-opacity="0" />
                                        </radialGradient>
                                        <linearGradient id="paint9_linear_693_315" x1="5.51605" y1="12.0366" x2="5.51605" y2="14.5789" gradientUnits="userSpaceOnUse">
                                            <stop stop-color="#4D4277" />
                                            <stop offset="1" stop-color="#4D4277" stop-opacity="0" />
                                        </linearGradient>
                                        <linearGradient id="paint10_linear_693_315" x1="18.1115" y1="14.7623" x2="2.19799" y2="14.7623" gradientUnits="userSpaceOnUse">
                                            <stop offset="0.430684" stop-color="#6052A1" />
                                            <stop offset="0.464436" stop-color="#4E3A83" />
                                        </linearGradient>
                                        <radialGradient id="paint11_radial_693_315" cx="0" cy="0" r="1" gradientUnits="userSpaceOnUse" gradientTransform="translate(11.2953 9.1792) rotate(94.1261) scale(4.32958 8.2643)">
                                            <stop offset="0.646766" stop-color="#442A5D" stop-opacity="0" />
                                            <stop offset="1" stop-color="#442A5D" />
                                        </radialGradient>
                                        <radialGradient id="paint12_radial_693_315" cx="0" cy="0" r="1" gradientUnits="userSpaceOnUse" gradientTransform="translate(13.8024 10.828) rotate(151.174) scale(3.21723 2.09166)">
                                            <stop stop-color="#6F5A85" />
                                            <stop offset="1" stop-color="#6F5A85" stop-opacity="0" />
                                        </radialGradient>
                                        <radialGradient id="paint13_radial_693_315" cx="0" cy="0" r="1" gradientUnits="userSpaceOnUse" gradientTransform="translate(8.82879 9.1792) rotate(101.741) scale(3.87193 2.46719)">
                                            <stop stop-color="#4A3947" />
                                            <stop offset="1" stop-color="#4A3947" stop-opacity="0" />
                                        </radialGradient>
                                        <radialGradient id="paint14_radial_693_315" cx="0" cy="0" r="1" gradientUnits="userSpaceOnUse" gradientTransform="translate(10.8478 12.8101) rotate(-47.5718) scale(3.68599 3.77452)">
                                            <stop offset="0.9419" stop-color="#766F8B" stop-opacity="0.0816862" />
                                            <stop offset="0.991185" stop-color="#766F8B" />
                                        </radialGradient>
                                        <radialGradient id="paint15_radial_693_315" cx="0" cy="0" r="1" gradientUnits="userSpaceOnUse" gradientTransform="translate(7.5141 12.2837) rotate(-44.2361) scale(3.41845 3.34634)">
                                            <stop stop-color="#422E3D" />
                                            <stop offset="1" stop-color="#422E3D" stop-opacity="0" />
                                        </radialGradient>
                                        <radialGradient id="paint16_radial_693_315" cx="0" cy="0" r="1" gradientUnits="userSpaceOnUse" gradientTransform="translate(11.7036 12.8208) rotate(-139.07) scale(4.06645 4.82003)">
                                            <stop offset="0.933845" stop-color="#50464D" stop-opacity="0" />
                                            <stop offset="1" stop-color="#50464D" />
                                        </radialGradient>
                                        <radialGradient id="paint17_radial_693_315" cx="0" cy="0" r="1" gradientUnits="userSpaceOnUse" gradientTransform="translate(6.19281 12.4448) rotate(180) scale(1.48242 1.50391)">
                                            <stop stop-color="#FF3389" />
                                            <stop offset="1" stop-color="#E13B63" />
                                        </radialGradient>
                                        <radialGradient id="paint18_radial_693_315" cx="0" cy="0" r="1" gradientUnits="userSpaceOnUse" gradientTransform="translate(6.09763 12.4862) rotate(168.311) scale(0.777411 0.382333)">
                                            <stop stop-color="#FF5EA3" />
                                            <stop offset="1" stop-color="#FF5EA3" stop-opacity="0" />
                                        </radialGradient>
                                        <radialGradient id="paint19_radial_693_315" cx="0" cy="0" r="1" gradientUnits="userSpaceOnUse" gradientTransform="translate(5.92426 12.2783) rotate(166.189) scale(1.32744 1.30795)">
                                            <stop offset="0.677262" stop-color="#C52754" stop-opacity="0" />
                                            <stop offset="1" stop-color="#C52754" />
                                        </radialGradient>
                                        <linearGradient id="paint20_linear_693_315" x1="10.5004" y1="8.91064" x2="11.7465" y2="8.91064" gradientUnits="userSpaceOnUse">
                                            <stop stop-color="#DDB7F2" />
                                            <stop offset="1" stop-color="#F8EBFF" />
                                        </linearGradient>
                                        <radialGradient id="paint21_radial_693_315" cx="0" cy="0" r="1" gradientUnits="userSpaceOnUse" gradientTransform="translate(11.0571 7.11011) scale(1.18185 0.648111)">
                                            <stop stop-color="#BD7CD0" />
                                            <stop offset="1" stop-color="#BD7CD0" stop-opacity="0" />
                                        </radialGradient>
                                        <radialGradient id="paint22_radial_693_315" cx="0" cy="0" r="1" gradientUnits="userSpaceOnUse" gradientTransform="translate(10.5893 6.85158) rotate(123.064) scale(2.18879 1.38457)">
                                            <stop offset="0.179717" stop-color="#B87EBA" />
                                            <stop offset="1" stop-color="#BD7CD0" stop-opacity="0" />
                                        </radialGradient>
                                        <radialGradient id="paint23_radial_693_315" cx="0" cy="0" r="1" gradientUnits="userSpaceOnUse" gradientTransform="translate(12.9282 3.08838) rotate(142.722) scale(3.61806)">
                                            <stop stop-color="#FF78AD" />
                                            <stop offset="1" stop-color="#FB426F" />
                                        </radialGradient>
                                        <radialGradient id="paint24_radial_693_315" cx="0" cy="0" r="1" gradientUnits="userSpaceOnUse" gradientTransform="translate(12.7993 4.39893) rotate(-180) scale(4.96289)">
                                            <stop offset="0.542662" stop-color="#CC515D" stop-opacity="0" />
                                            <stop offset="1" stop-color="#CC515D" />
                                            <stop offset="1" stop-color="#CC515D" />
                                        </radialGradient>
                                        <radialGradient id="paint25_radial_693_315" cx="0" cy="0" r="1" gradientUnits="userSpaceOnUse" gradientTransform="translate(10.9838 2.70166) rotate(90) scale(5.07031)">
                                            <stop offset="0.807095" stop-color="#B8276B" stop-opacity="0" />
                                            <stop offset="1" stop-color="#B8276B" />
                                        </radialGradient>
                                    </defs>
                                </svg>