<svg xmlns="http://www.w3.org/2000/svg" width="22" height="22" viewBox="0 0 22 22" fill="none">
                                    <path d="M10.4617 20.076C10.8295 20.2813 11.272 20.2699 11.6377 20.0609C14.101 18.6531 18.3817 15.4123 20.0628 11.2027C22.5303 5.72165 16.7365 1.34636 12.7323 4.49322C12.3146 4.82149 11.7894 5.19718 11.428 5.55307C11.2646 5.71398 10.9766 5.73038 10.807 5.57604C10.3319 5.14372 9.58923 4.58914 9.1123 4.26647C5.69861 1.95689 -0.512684 5.00131 2.13683 11.4988C3.10742 14.4153 7.73258 18.553 10.4617 20.076Z" fill="url(#paint0_radial_693_358)" />
                                    <path d="M10.4617 20.076C10.8295 20.2813 11.272 20.2699 11.6377 20.0609C14.101 18.6531 18.3817 15.4123 20.0628 11.2027C22.5303 5.72165 16.7365 1.34636 12.7323 4.49322C12.3146 4.82149 11.7894 5.19718 11.428 5.55307C11.2646 5.71398 10.9766 5.73038 10.807 5.57604C10.3319 5.14372 9.58923 4.58914 9.1123 4.26647C5.69861 1.95689 -0.512684 5.00131 2.13683 11.4988C3.10742 14.4153 7.73258 18.553 10.4617 20.076Z" fill="url(#paint1_radial_693_358)" />
                                    <path d="M10.4617 20.076C10.8295 20.2813 11.272 20.2699 11.6377 20.0609C14.101 18.6531 18.3817 15.4123 20.0628 11.2027C22.5303 5.72165 16.7365 1.34636 12.7323 4.49322C12.3146 4.82149 11.7894 5.19718 11.428 5.55307C11.2646 5.71398 10.9766 5.73038 10.807 5.57604C10.3319 5.14372 9.58923 4.58914 9.1123 4.26647C5.69861 1.95689 -0.512684 5.00131 2.13683 11.4988C3.10742 14.4153 7.73258 18.553 10.4617 20.076Z" fill="url(#paint2_radial_693_358)" />
                                    <path d="M10.4617 20.076C10.8295 20.2813 11.272 20.2699 11.6377 20.0609C14.101 18.6531 18.3817 15.4123 20.0628 11.2027C22.5303 5.72165 16.7365 1.34636 12.7323 4.49322C12.3146 4.82149 11.7894 5.19718 11.428 5.55307C11.2646 5.71398 10.9766 5.73038 10.807 5.57604C10.3319 5.14372 9.58923 4.58914 9.1123 4.26647C5.69861 1.95689 -0.512684 5.00131 2.13683 11.4988C3.10742 14.4153 7.73258 18.553 10.4617 20.076Z" fill="url(#paint3_radial_693_358)" />
                                    <path d="M10.4617 20.076C10.8295 20.2813 11.272 20.2699 11.6377 20.0609C14.101 18.6531 18.3817 15.4123 20.0628 11.2027C22.5303 5.72165 16.7365 1.34636 12.7323 4.49322C12.3146 4.82149 11.7894 5.19718 11.428 5.55307C11.2646 5.71398 10.9766 5.73038 10.807 5.57604C10.3319 5.14372 9.58923 4.58914 9.1123 4.26647C5.69861 1.95689 -0.512684 5.00131 2.13683 11.4988C3.10742 14.4153 7.73258 18.553 10.4617 20.076Z" fill="url(#paint4_linear_693_358)" />
                                    <path d="M10.4617 20.076C10.8295 20.2813 11.272 20.2699 11.6377 20.0609C14.101 18.6531 18.3817 15.4123 20.0628 11.2027C22.5303 5.72165 16.7365 1.34636 12.7323 4.49322C12.3146 4.82149 11.7894 5.19718 11.428 5.55307C11.2646 5.71398 10.9766 5.73038 10.807 5.57604C10.3319 5.14372 9.58923 4.58914 9.1123 4.26647C5.69861 1.95689 -0.512684 5.00131 2.13683 11.4988C3.10742 14.4153 7.73258 18.553 10.4617 20.076Z" fill="url(#paint5_linear_693_358)" />
                                    <path d="M10.4617 20.076C10.8295 20.2813 11.272 20.2699 11.6377 20.0609C14.101 18.6531 18.3817 15.4123 20.0628 11.2027C22.5303 5.72165 16.7365 1.34636 12.7323 4.49322C12.3146 4.82149 11.7894 5.19718 11.428 5.55307C11.2646 5.71398 10.9766 5.73038 10.807 5.57604C10.3319 5.14372 9.58923 4.58914 9.1123 4.26647C5.69861 1.95689 -0.512684 5.00131 2.13683 11.4988C3.10742 14.4153 7.73258 18.553 10.4617 20.076Z" fill="url(#paint6_radial_693_358)" fill-opacity="0.6" />
                                    <g filter="url(#filter0_f_693_358)">
                                        <path d="M10.937 7.24672V11.9373C10.937 12.5594 11.6902 12.8543 12.078 12.3678C13.2778 10.8629 14.2454 9.03291 13.1655 7.53811C12.7515 6.96497 11.9583 6.59781 11.3101 6.71463C11.0676 6.75833 10.937 7.00034 10.937 7.24672Z" fill="#FA1C56" />
                                    </g>
                                    <g filter="url(#filter1_f_693_358)">
                                        <ellipse cx="16.9559" cy="7.82174" rx="3.06744" ry="2.54383" transform="rotate(-44.1901 16.9559 7.82174)" fill="url(#paint7_radial_693_358)" />
                                    </g>
                                    <g filter="url(#filter2_f_693_358)">
                                        <ellipse cx="16.1289" cy="4.1709" rx="1.16362" ry="0.2445" transform="rotate(7.16522 16.1289 4.1709)" fill="#FF7383" />
                                    </g>
                                    <g filter="url(#filter3_f_693_358)">
                                        <ellipse cx="6.4549" cy="4.16174" rx="1.04408" ry="0.171471" transform="rotate(-0.697201 6.4549 4.16174)" fill="#FF93BA" fill-opacity="0.5" />
                                    </g>
                                    <g filter="url(#filter4_f_693_358)">
                                        <path d="M10.206 6.84878L10.4209 13.8957C5.6943 9.298 4.78542 6.06933 6.59661 5.34487C8.31539 4.65737 9.6904 5.77456 10.206 6.84878Z" fill="url(#paint8_radial_693_358)" />
                                    </g>
                                    <g filter="url(#filter5_f_693_358)">
                                        <path d="M9.8623 6.43632C9.2848 6.35382 9.10605 5.87486 9.08887 5.64569C9.41887 5.98944 9.74199 6.01809 9.8623 5.98944V6.43632Z" fill="#FF7383" />
                                    </g>
                                    <defs>
                                        <filter id="filter0_f_693_358" x="9.56195" y="5.31796" width="5.44678" height="8.668" filterUnits="userSpaceOnUse" color-interpolation-filters="sRGB">
                                            <feFlood flood-opacity="0" result="BackgroundImageFix" />
                                            <feBlend mode="normal" in="SourceGraphic" in2="BackgroundImageFix" result="shape" />
                                            <feGaussianBlur stdDeviation="0.6875" result="effect1_foregroundBlur_693_358" />
                                        </filter>
                                        <filter id="filter1_f_693_358" x="13.0994" y="3.97998" width="7.71301" height="7.6835" filterUnits="userSpaceOnUse" color-interpolation-filters="sRGB">
                                            <feFlood flood-opacity="0" result="BackgroundImageFix" />
                                            <feBlend mode="normal" in="SourceGraphic" in2="BackgroundImageFix" result="shape" />
                                            <feGaussianBlur stdDeviation="0.515625" result="effect1_foregroundBlur_693_358" />
                                        </filter>
                                        <filter id="filter2_f_693_358" x="13.599" y="2.51315" width="5.05988" height="3.31549" filterUnits="userSpaceOnUse" color-interpolation-filters="sRGB">
                                            <feFlood flood-opacity="0" result="BackgroundImageFix" />
                                            <feBlend mode="normal" in="SourceGraphic" in2="BackgroundImageFix" result="shape" />
                                            <feGaussianBlur stdDeviation="0.6875" result="effect1_foregroundBlur_693_358" />
                                        </filter>
                                        <filter id="filter3_f_693_358" x="4.37964" y="2.95856" width="4.15051" height="2.40637" filterUnits="userSpaceOnUse" color-interpolation-filters="sRGB">
                                            <feFlood flood-opacity="0" result="BackgroundImageFix" />
                                            <feBlend mode="normal" in="SourceGraphic" in2="BackgroundImageFix" result="shape" />
                                            <feGaussianBlur stdDeviation="0.515625" result="effect1_foregroundBlur_693_358" />
                                        </filter>
                                        <filter id="filter4_f_693_358" x="3.6665" y="3.07083" width="8.81683" height="12.8873" filterUnits="userSpaceOnUse" color-interpolation-filters="sRGB">
                                            <feFlood flood-opacity="0" result="BackgroundImageFix" />
                                            <feBlend mode="normal" in="SourceGraphic" in2="BackgroundImageFix" result="shape" />
                                            <feGaussianBlur stdDeviation="1.03125" result="effect1_foregroundBlur_693_358" />
                                        </filter>
                                        <filter id="filter5_f_693_358" x="8.40137" y="4.95819" width="2.14844" height="2.16562" filterUnits="userSpaceOnUse" color-interpolation-filters="sRGB">
                                            <feFlood flood-opacity="0" result="BackgroundImageFix" />
                                            <feBlend mode="normal" in="SourceGraphic" in2="BackgroundImageFix" result="shape" />
                                            <feGaussianBlur stdDeviation="0.34375" result="effect1_foregroundBlur_693_358" />
                                        </filter>
                                        <radialGradient id="paint0_radial_693_358" cx="0" cy="0" r="1" gradientUnits="userSpaceOnUse" gradientTransform="translate(10.9194 3.87312) rotate(90) scale(15.8019 16.7765)">
                                            <stop stop-color="#FC0000" />
                                            <stop offset="0.527969" stop-color="#FF3B79" />
                                            <stop offset="1" stop-color="#F724B3" />
                                        </radialGradient>
                                        <radialGradient id="paint1_radial_693_358" cx="0" cy="0" r="1" gradientUnits="userSpaceOnUse" gradientTransform="translate(15.8296 7.8121) rotate(134.402) scale(14.6195 27.3837)">
                                            <stop offset="0.797874" stop-color="#C82092" stop-opacity="0" />
                                            <stop offset="0.908039" stop-color="#C82092" />
                                        </radialGradient>
                                        <radialGradient id="paint2_radial_693_358" cx="0" cy="0" r="1" gradientUnits="userSpaceOnUse" gradientTransform="translate(13.7478 12.2296) rotate(-158.663) scale(15.64 22.1093)">
                                            <stop offset="0.40984" stop-color="#B91D43" stop-opacity="0" />
                                            <stop offset="0.833898" stop-color="#B91D43" />
                                        </radialGradient>
                                        <radialGradient id="paint3_radial_693_358" cx="0" cy="0" r="1" gradientUnits="userSpaceOnUse" gradientTransform="translate(10.6976 9.49816) rotate(90) scale(13.6119)">
                                            <stop offset="0.671096" stop-color="#FF7AF2" stop-opacity="0" />
                                            <stop offset="0.933555" stop-color="#FFBCE6" />
                                        </radialGradient>
                                        <linearGradient id="paint4_linear_693_358" x1="12.1999" y1="11.0915" x2="17.7085" y2="17.6471" gradientUnits="userSpaceOnUse">
                                            <stop offset="0.694491" stop-color="#FF7AF2" stop-opacity="0" />
                                            <stop offset="0.933555" stop-color="#FFBCE6" />
                                        </linearGradient>
                                        <linearGradient id="paint5_linear_693_358" x1="11.5171" y1="11.3647" x2="5.05254" y2="18.6487" gradientUnits="userSpaceOnUse">
                                            <stop offset="0.694491" stop-color="#FF7AF2" stop-opacity="0" />
                                            <stop offset="0.933555" stop-color="#FFBCE6" />
                                        </linearGradient>
                                        <radialGradient id="paint6_radial_693_358" cx="0" cy="0" r="1" gradientUnits="userSpaceOnUse" gradientTransform="translate(12.6136 8.8658) rotate(164.618) scale(11.8351 12.4989)">
                                            <stop offset="0.802083" stop-color="#FF73A6" stop-opacity="0" />
                                            <stop offset="1" stop-color="#FF93BA" />
                                        </radialGradient>
                                        <radialGradient id="paint7_radial_693_358" cx="0" cy="0" r="1" gradientUnits="userSpaceOnUse" gradientTransform="translate(20.0199 7.73556) rotate(172.927) scale(5.01282 6.66574)">
                                            <stop stop-color="#FF7383" />
                                            <stop offset="1" stop-color="#FF7383" stop-opacity="0" />
                                        </radialGradient>
                                        <radialGradient id="paint8_radial_693_358" cx="0" cy="0" r="1" gradientUnits="userSpaceOnUse" gradientTransform="translate(11.2373 9.51449) rotate(-135.591) scale(8.7217 15.4825)">
                                            <stop stop-color="#FF6274" />
                                            <stop offset="1" stop-color="#FF6274" stop-opacity="0" />
                                        </radialGradient>
                                    </defs>
                                </svg>