<svg xmlns="http://www.w3.org/2000/svg" width="22" height="22" viewBox="0 0 22 22" fill="none">
                                    <g filter="url(#filter0_i_693_376)">
                                        <path d="M3.05396 14.3569C3.05396 9.99043 6.5937 6.45068 10.9602 6.45068H11.3469C15.7134 6.45068 19.2532 9.99043 19.2532 14.3569V14.5535C19.2532 17.8948 16.5445 20.6035 13.2032 20.6035H9.10396C5.76263 20.6035 3.05396 17.8948 3.05396 14.5535V14.3569Z" fill="url(#paint0_radial_693_376)" />
                                        <path d="M3.05396 14.3569C3.05396 9.99043 6.5937 6.45068 10.9602 6.45068H11.3469C15.7134 6.45068 19.2532 9.99043 19.2532 14.3569V14.5535C19.2532 17.8948 16.5445 20.6035 13.2032 20.6035H9.10396C5.76263 20.6035 3.05396 17.8948 3.05396 14.5535V14.3569Z" fill="url(#paint1_radial_693_376)" />
                                    </g>
                                    <path d="M3.05396 14.3569C3.05396 9.99043 6.5937 6.45068 10.9602 6.45068H11.3469C15.7134 6.45068 19.2532 9.99043 19.2532 14.3569V14.5535C19.2532 17.8948 16.5445 20.6035 13.2032 20.6035H9.10396C5.76263 20.6035 3.05396 17.8948 3.05396 14.5535V14.3569Z" fill="url(#paint2_radial_693_376)" />
                                    <path d="M3.05396 14.3569C3.05396 9.99043 6.5937 6.45068 10.9602 6.45068H11.3469C15.7134 6.45068 19.2532 9.99043 19.2532 14.3569V14.5535C19.2532 17.8948 16.5445 20.6035 13.2032 20.6035H9.10396C5.76263 20.6035 3.05396 17.8948 3.05396 14.5535V14.3569Z" fill="url(#paint3_radial_693_376)" />
                                    <g filter="url(#filter1_ii_693_376)">
                                        <path
                                            d="M8.36081 3.22796C8.68423 3.77875 9.15478 4.48528 9.75983 5.06494H12.5474C13.1525 4.48528 13.623 3.77875 13.9465 3.22796C14.1132 2.94395 13.9979 2.58146 13.7043 2.43208C13.4839 2.31987 13.2254 2.37314 13.0116 2.49768C12.5293 2.77872 12.2507 2.44741 11.825 1.79663C11.611 1.46941 11.2845 1.45198 11.1536 1.4502C11.0227 1.45198 10.6963 1.46941 10.4822 1.79663C10.0566 2.44741 9.778 2.77872 9.29565 2.49768C9.0819 2.37314 8.82339 2.31987 8.60293 2.43208C8.30938 2.58146 8.19403 2.94395 8.36081 3.22796Z"
                                            fill="url(#paint4_linear_693_376)"
                                        />
                                    </g>
                                    <g filter="url(#filter2_f_693_376)">
                                        <path
                                            d="M11.55 9.80226C11.55 9.4985 11.3037 9.25226 11 9.25226C10.6962 9.25226 10.45 9.4985 10.45 9.80226V10.3213C10.45 10.4443 10.3676 10.5509 10.2527 10.5948C10.0623 10.6676 9.87203 10.7686 9.69724 10.8994C9.25901 11.2275 8.90213 11.7581 8.90213 12.4985C8.90213 13.2273 9.23057 13.7554 9.67668 14.0939C10.1017 14.4163 10.6146 14.5559 11.0244 14.5932C11.1905 14.6083 11.4385 14.6524 11.6439 14.782C11.8213 14.8939 11.9984 15.0859 12.0357 15.4971C12.0715 15.8906 11.9117 16.1241 11.703 16.2831C11.4623 16.4666 11.1828 16.5247 11.1118 16.5247C10.9462 16.5247 10.6622 16.5028 10.4221 16.3725C10.22 16.2627 10.0021 16.0549 9.95699 15.5488C9.93002 15.2463 9.66288 15.0229 9.36033 15.0498C9.05777 15.0768 8.83437 15.3439 8.86134 15.6465C8.93975 16.5261 9.37715 17.0569 9.89741 17.3392C10.0123 17.4016 10.1285 17.4504 10.2419 17.4887C10.3623 17.5293 10.45 17.6381 10.45 17.7651V18.2349C10.45 18.5386 10.6962 18.7849 11 18.7849C11.3037 18.7849 11.55 18.5386 11.55 18.2349V17.77C11.55 17.6458 11.6339 17.5384 11.7505 17.4955C11.9572 17.4193 12.1729 17.3081 12.3699 17.1579C12.8269 16.8096 13.2068 16.2294 13.1312 15.3975C13.0612 14.627 12.6748 14.1635 12.2236 13.8789C11.8004 13.612 11.3369 13.5239 11.1064 13.5029C10.4819 13.4706 10.0021 13.1258 10.0021 12.4985C10.0021 12.154 10.1388 11.901 10.3415 11.7493C10.76 11.3948 11.4718 11.443 11.8079 11.8885C11.9567 12.0857 12.0233 12.303 12.0383 12.4985C12.0616 12.8014 12.3236 13.0428 12.6264 13.0195C12.9293 12.9962 13.1552 12.7592 13.1319 12.4563C13.1075 12.1398 13.0028 11.6766 12.6828 11.2524C12.4739 10.9755 12.079 10.7099 11.7543 10.5762C11.6372 10.528 11.55 10.4186 11.55 10.2919V9.80226Z"
                                            fill="url(#paint5_linear_693_376)"
                                        />
                                    </g>
                                    <g filter="url(#filter3_ii_693_376)">
                                        <path
                                            d="M11.6874 9.73243C11.6874 9.42868 11.4412 9.18243 11.1374 9.18243C10.8337 9.18243 10.5874 9.42868 10.5874 9.73243V10.2515C10.5874 10.3745 10.5051 10.481 10.3902 10.525C10.1997 10.5978 10.0095 10.6988 9.83469 10.8296C9.39646 11.1577 9.03958 11.6883 9.03958 12.4287C9.03958 13.1575 9.36802 13.6856 9.81413 14.0241C10.2391 14.3465 10.7521 14.4861 11.1618 14.5233C11.328 14.5384 11.5759 14.5826 11.7813 14.7121C11.9588 14.8241 12.1358 15.0161 12.1732 15.4272C12.209 15.8207 12.0491 16.0542 11.8405 16.2133C11.5997 16.3968 11.3202 16.4549 11.2493 16.4549C11.0836 16.4549 10.7997 16.4329 10.5596 16.3026C10.3574 16.1929 10.1396 15.9851 10.0944 15.479C10.0675 15.1764 9.80034 14.953 9.49778 14.98C9.19522 15.007 8.97182 15.2741 8.99879 15.5767C9.07721 16.4563 9.5146 16.987 10.0349 17.2694C10.1497 17.3318 10.2659 17.3806 10.3794 17.4188C10.4998 17.4594 10.5874 17.5683 10.5874 17.6953V18.1651C10.5874 18.4688 10.8337 18.7151 11.1374 18.7151C11.4412 18.7151 11.6874 18.4688 11.6874 18.1651V17.7002C11.6874 17.576 11.7714 17.4686 11.888 17.4256C12.0947 17.3495 12.3104 17.2382 12.5073 17.0881C12.9644 16.7397 13.3443 16.1595 13.2687 15.3277C13.1986 14.5572 12.8122 14.0937 12.3611 13.8091C11.9379 13.5422 11.4744 13.4541 11.2439 13.4331C10.6194 13.4008 10.1396 13.056 10.1396 12.4287C10.1396 12.0842 10.2763 11.8312 10.479 11.6794C10.8974 11.325 11.6092 11.3732 11.9454 11.8187C12.0941 12.0158 12.1607 12.2332 12.1758 12.4287C12.1991 12.7316 12.461 12.973 12.7639 12.9497C13.0668 12.9264 13.2926 12.6894 13.2693 12.3865C13.245 12.07 13.1403 11.6067 12.8203 11.1826C12.6113 10.9056 12.2165 10.6401 11.8917 10.5064C11.7746 10.4581 11.6874 10.3488 11.6874 10.2221V9.73243Z"
                                            fill="url(#paint6_linear_693_376)"
                                        />
                                    </g>
                                    <g filter="url(#filter4_i_693_376)">
                                        <rect x="9.16626" y="5.06494" width="3.94238" height="1.4502" rx="0.722412" fill="url(#paint7_linear_693_376)" />
                                        <rect x="9.16626" y="5.06494" width="3.94238" height="1.4502" rx="0.722412" fill="url(#paint8_radial_693_376)" />
                                    </g>
                                    <rect x="9.16626" y="5.06494" width="3.94238" height="1.4502" rx="0.722412" fill="url(#paint9_radial_693_376)" />
                                    <defs>
                                        <filter id="filter0_i_693_376" x="3.05396" y="5.41943" width="16.8867" height="15.1841" filterUnits="userSpaceOnUse" color-interpolation-filters="sRGB">
                                            <feFlood flood-opacity="0" result="BackgroundImageFix" />
                                            <feBlend mode="normal" in="SourceGraphic" in2="BackgroundImageFix" result="shape" />
                                            <feColorMatrix in="SourceAlpha" type="matrix" values="0 0 0 0 0 0 0 0 0 0 0 0 0 0 0 0 0 0 127 0" result="hardAlpha" />
                                            <feOffset dx="0.6875" dy="-1.03125" />
                                            <feGaussianBlur stdDeviation="1.20312" />
                                            <feComposite in2="hardAlpha" operator="arithmetic" k2="-1" k3="1" />
                                            <feColorMatrix type="matrix" values="0 0 0 0 0.713726 0 0 0 0 0.321569 0 0 0 0 0.211765 0 0 0 1 0" />
                                            <feBlend mode="normal" in2="shape" result="effect1_innerShadow_693_376" />
                                        </filter>
                                        <filter id="filter1_ii_693_376" x="8.14644" y="1.27832" width="5.94563" height="3.92412" filterUnits="userSpaceOnUse" color-interpolation-filters="sRGB">
                                            <feFlood flood-opacity="0" result="BackgroundImageFix" />
                                            <feBlend mode="normal" in="SourceGraphic" in2="BackgroundImageFix" result="shape" />
                                            <feColorMatrix in="SourceAlpha" type="matrix" values="0 0 0 0 0 0 0 0 0 0 0 0 0 0 0 0 0 0 127 0" result="hardAlpha" />
                                            <feOffset dx="-0.1375" dy="0.1375" />
                                            <feGaussianBlur stdDeviation="0.103125" />
                                            <feComposite in2="hardAlpha" operator="arithmetic" k2="-1" k3="1" />
                                            <feColorMatrix type="matrix" values="0 0 0 0 1 0 0 0 0 0.92549 0 0 0 0 0.403922 0 0 0 1 0" />
                                            <feBlend mode="normal" in2="shape" result="effect1_innerShadow_693_376" />
                                            <feColorMatrix in="SourceAlpha" type="matrix" values="0 0 0 0 0 0 0 0 0 0 0 0 0 0 0 0 0 0 127 0" result="hardAlpha" />
                                            <feOffset dx="0.06875" dy="-0.171875" />
                                            <feGaussianBlur stdDeviation="0.171875" />
                                            <feComposite in2="hardAlpha" operator="arithmetic" k2="-1" k3="1" />
                                            <feColorMatrix type="matrix" values="0 0 0 0 0.788235 0 0 0 0 0.364706 0 0 0 0 0.12549 0 0 0 1 0" />
                                            <feBlend mode="normal" in2="effect1_innerShadow_693_376" result="effect2_innerShadow_693_376" />
                                        </filter>
                                        <filter id="filter2_f_693_376" x="8.65288" y="9.04601" width="4.69424" height="9.94512" filterUnits="userSpaceOnUse" color-interpolation-filters="sRGB">
                                            <feFlood flood-opacity="0" result="BackgroundImageFix" />
                                            <feBlend mode="normal" in="SourceGraphic" in2="BackgroundImageFix" result="shape" />
                                            <feGaussianBlur stdDeviation="0.103125" result="effect1_foregroundBlur_693_376" />
                                        </filter>
                                        <filter id="filter3_ii_693_376" x="8.92783" y="9.04493" width="4.45361" height="9.77325" filterUnits="userSpaceOnUse" color-interpolation-filters="sRGB">
                                            <feFlood flood-opacity="0" result="BackgroundImageFix" />
                                            <feBlend mode="normal" in="SourceGraphic" in2="BackgroundImageFix" result="shape" />
                                            <feColorMatrix in="SourceAlpha" type="matrix" values="0 0 0 0 0 0 0 0 0 0 0 0 0 0 0 0 0 0 127 0" result="hardAlpha" />
                                            <feOffset dx="0.103125" dy="-0.1375" />
                                            <feGaussianBlur stdDeviation="0.103125" />
                                            <feComposite in2="hardAlpha" operator="arithmetic" k2="-1" k3="1" />
                                            <feColorMatrix type="matrix" values="0 0 0 0 0.352941 0 0 0 0 0.168627 0 0 0 0 0.188235 0 0 0 1 0" />
                                            <feBlend mode="normal" in2="shape" result="effect1_innerShadow_693_376" />
                                            <feColorMatrix in="SourceAlpha" type="matrix" values="0 0 0 0 0 0 0 0 0 0 0 0 0 0 0 0 0 0 127 0" result="hardAlpha" />
                                            <feOffset dx="-0.06875" dy="0.103125" />
                                            <feGaussianBlur stdDeviation="0.075625" />
                                            <feComposite in2="hardAlpha" operator="arithmetic" k2="-1" k3="1" />
                                            <feColorMatrix type="matrix" values="0 0 0 0 0.670588 0 0 0 0 0.458824 0 0 0 0 0.403922 0 0 0 1 0" />
                                            <feBlend mode="normal" in2="effect1_innerShadow_693_376" result="effect2_innerShadow_693_376" />
                                        </filter>
                                        <filter id="filter4_i_693_376" x="9.16626" y="4.65244" width="3.94238" height="1.8627" filterUnits="userSpaceOnUse" color-interpolation-filters="sRGB">
                                            <feFlood flood-opacity="0" result="BackgroundImageFix" />
                                            <feBlend mode="normal" in="SourceGraphic" in2="BackgroundImageFix" result="shape" />
                                            <feColorMatrix in="SourceAlpha" type="matrix" values="0 0 0 0 0 0 0 0 0 0 0 0 0 0 0 0 0 0 127 0" result="hardAlpha" />
                                            <feOffset dy="-0.4125" />
                                            <feGaussianBlur stdDeviation="0.34375" />
                                            <feComposite in2="hardAlpha" operator="arithmetic" k2="-1" k3="1" />
                                            <feColorMatrix type="matrix" values="0 0 0 0 0.388235 0 0 0 0 0.223529 0 0 0 0 0.109804 0 0 0 1 0" />
                                            <feBlend mode="normal" in2="shape" result="effect1_innerShadow_693_376" />
                                        </filter>
                                        <radialGradient id="paint0_radial_693_376" cx="0" cy="0" r="1" gradientUnits="userSpaceOnUse" gradientTransform="translate(13.3665 7.77734) rotate(100.07) scale(12.6559 13.2556)">
                                            <stop stop-color="#F6C93B" />
                                            <stop offset="1" stop-color="#E88340" />
                                        </radialGradient>
                                        <radialGradient id="paint1_radial_693_376" cx="0" cy="0" r="1" gradientUnits="userSpaceOnUse" gradientTransform="translate(16.5461 9.75391) rotate(133.199) scale(4.83336 8.0978)">
                                            <stop stop-color="#FFE065" />
                                            <stop offset="1" stop-color="#FFE065" stop-opacity="0" />
                                        </radialGradient>
                                        <radialGradient id="paint2_radial_693_376" cx="0" cy="0" r="1" gradientUnits="userSpaceOnUse" gradientTransform="translate(4.17114 9.75391) rotate(31.6513) scale(3.68481 9.13227)">
                                            <stop offset="0.187216" stop-color="#FFA45D" />
                                            <stop offset="1" stop-color="#FFA45D" stop-opacity="0" />
                                        </radialGradient>
                                        <radialGradient id="paint3_radial_693_376" cx="0" cy="0" r="1" gradientUnits="userSpaceOnUse" gradientTransform="translate(11.1536 17.3594) rotate(-90) scale(11.2148 16.8968)">
                                            <stop offset="0.928161" stop-color="#F3BD46" stop-opacity="0" />
                                            <stop offset="0.979885" stop-color="#917011" />
                                        </radialGradient>
                                        <linearGradient id="paint4_linear_693_376" x1="12.0157" y1="2.6748" x2="11.1536" y2="5.06494" gradientUnits="userSpaceOnUse">
                                            <stop stop-color="#F3C048" />
                                            <stop offset="1" stop-color="#E67A41" />
                                        </linearGradient>
                                        <linearGradient id="paint5_linear_693_376" x1="11" y1="9.47998" x2="11" y2="18.2886" gradientUnits="userSpaceOnUse">
                                            <stop stop-color="#A6782C" />
                                            <stop offset="1" stop-color="#B95940" />
                                        </linearGradient>
                                        <linearGradient id="paint6_linear_693_376" x1="13.5169" y1="15.0391" x2="8.99658" y2="15.0391" gradientUnits="userSpaceOnUse">
                                            <stop stop-color="#9D6360" />
                                            <stop offset="1" stop-color="#724A4D" />
                                        </linearGradient>
                                        <linearGradient id="paint7_linear_693_376" x1="9.71411" y1="5.79004" x2="13.1086" y2="5.79004" gradientUnits="userSpaceOnUse">
                                            <stop stop-color="#834B41" />
                                            <stop offset="1" stop-color="#735854" />
                                        </linearGradient>
                                        <radialGradient id="paint8_radial_693_376" cx="0" cy="0" r="1" gradientUnits="userSpaceOnUse" gradientTransform="translate(12.4211 5.56445) rotate(-180) scale(1.28369 0.966797)">
                                            <stop stop-color="#7D5A54" />
                                            <stop offset="1" stop-color="#7D5A54" stop-opacity="0" />
                                        </radialGradient>
                                        <radialGradient id="paint9_radial_693_376" cx="0" cy="0" r="1" gradientUnits="userSpaceOnUse" gradientTransform="translate(12.593 5.79004) rotate(180) scale(3.80273 3.04633)">
                                            <stop offset="0.694915" stop-color="#B3624D" stop-opacity="0" />
                                            <stop offset="0.960452" stop-color="#B3624D" />
                                        </radialGradient>
                                    </defs>
                                </svg>