<svg xmlns="http://www.w3.org/2000/svg" width="49" height="45" viewBox="0 0 49 45" fill="none">
                    <path d="M10.5385 6.44998L9.90124 11.2958L8.41237 14.7607L9.13935 17.0893L6.86848 34.3574C6.73369 35.3554 7.32433 36.2938 8.23682 36.5444L31.9909 43.0661C32.9034 43.3166 33.8728 42.8065 34.2431 41.8732L44.5039 15.7752L28.2968 8.09122L10.5385 6.44998Z" fill="#FFCC49" />
                    <path
                        d="M10.0715 11.514L9.31885 17.2274C8.58414 18.1941 7.92821 19.137 7.39029 20.0409C6.24137 21.9714 5.81886 23.4192 5.96762 24.4058C6.082 25.1644 6.61831 26.0913 8.78856 26.7927C10.9125 27.4783 12.7309 27.5888 14.3815 27.2873C16.0395 26.9845 17.6163 26.2497 19.2317 25.1181C22.0565 23.1391 24.8056 20.1041 28.1795 16.3795L28.1809 16.3779C28.7579 15.7409 29.3532 15.0837 29.9703 14.4081C30.5404 13.7841 31.4948 13.752 32.102 14.3366C32.7092 14.9211 32.7393 15.9009 32.1692 16.525C31.5778 17.1724 30.9981 17.8132 30.4278 18.4435C27.08 22.1438 24.0591 25.4829 20.9297 27.6752C19.0597 28.9852 17.088 29.9375 14.9065 30.3359C12.7177 30.7357 10.4053 30.5617 7.87994 29.7464C5.10606 28.8499 3.34364 27.248 2.98705 24.8829C2.66484 22.7459 3.59912 20.4752 4.81709 18.4286C6.07226 16.3195 7.83347 14.1184 9.62945 12.0261C9.77627 11.855 9.9237 11.6843 10.0715 11.514Z"
                        fill="#D3D3D3"
                    />
                    <path d="M9.29093 4.91313L9.72995 1.1087C9.80664 0.511787 10.3749 0.0999385 10.938 0.254531L47.6118 10.3234C48.1749 10.478 48.4661 11.1258 48.2412 11.682L46.7501 15.1976C46.4115 16.0066 45.5669 16.4428 44.7667 16.2231L10.523 6.82138C9.70803 6.59763 9.18942 5.78717 9.29093 4.91313Z" fill="#EDAB00" />
                </svg>