 <svg xmlns="http://www.w3.org/2000/svg" width="145" height="31" viewBox="0 0 145 31" fill="none">
                    <path
                        d="M3.11538 26.8709V5.85864C1.23439 5.85864 0 4.95731 0 2.98565C0 0.957663 1.05805 0 3.17416 0H12.7554C22.0428 0 25.5108 3.26732 25.5696 7.9993C25.6284 10.8723 24.3352 13.4636 21.6901 14.8156C24.8054 15.8296 27.0391 17.6886 26.9803 21.6882C26.9216 26.4202 24.0413 28.8425 20.0442 29.5185C18.4571 29.8002 16.2235 30.0255 6.701 30.0255C4.29099 30.0255 3.11538 29.0679 3.11538 26.8709ZM20.6908 21.2939C20.6908 18.4772 17.4579 17.9139 15.2242 17.9139H9.34613V24.5049H14.9891C18.222 24.5049 20.6908 23.7726 20.6908 21.2939ZM19.2213 8.84429C19.2213 6.92897 18.1632 5.57697 12.6966 5.57697H9.40491V12.5623H12.7554C15.5181 12.5623 19.2213 11.7173 19.2213 8.84429Z"
                        fill="#FFCC49"
                    />
                    <path
                        d="M29.0569 22.1389V12.2243C29.0569 10.5343 29.8799 9.68929 32.1135 9.68929C33.9945 9.68929 35.1701 10.478 35.1701 12.1679V21.2939C35.1701 24.0542 37.5214 25.1809 39.8138 25.1809C42.2238 25.1809 43.7521 24.0542 44.6338 22.7022V12.0553C44.6338 10.647 46.0446 9.68929 47.6316 9.68929C49.2187 9.68929 50.747 10.5343 50.747 11.9989V27.8285C50.747 29.1805 49.9241 30.3072 47.8668 30.3072C45.9858 30.3072 44.8102 29.6312 44.7514 28.5045C43.3407 29.5749 41.1658 30.3072 38.9909 30.3072C33.2304 30.3072 29.0569 27.0962 29.0569 22.1389Z"
                        fill="#FFCC49"
                    />
                    <path
                        d="M74.263 13.3509C75.0859 14.4213 74.9683 16.2239 73.7339 17.0689C72.3232 17.9703 71.0888 17.9703 70.1483 16.8436C68.5025 14.9283 67.0917 14.4776 64.7405 14.4776C61.6251 14.4776 59.2739 16.6183 59.2739 20.2799C59.2739 23.9416 61.9778 25.5189 64.7993 25.6879C66.6803 25.8006 68.8551 25.2372 70.9125 23.9979C71.9705 23.3219 73.6752 23.6599 74.3217 24.6739C75.321 26.2512 75.2035 27.4342 73.5576 28.5609C71.5003 30.0255 68.4437 31.1522 64.4466 30.9832C58.9212 30.7579 53.3958 27.3779 53.3958 20.3362C53.3958 12.7876 58.98 9.12596 64.9168 9.12596C69.7369 9.12596 72.4408 10.9286 74.263 13.3509Z"
                        fill="#FFCC49"
                    />
                    <path
                        d="M97.4428 28.7299C96.6786 30.0819 94.8564 30.7579 93.3281 29.8565L83.8056 24.1106V27.9412C83.8056 29.2932 82.63 30.2509 80.5727 30.2509C78.8681 30.2509 77.6924 29.3495 77.6924 27.9412V3.09832C77.6924 1.57733 79.0444 0.732331 80.749 0.732331C82.5713 0.732331 83.8056 1.68999 83.8056 3.09832V13.3509L93.8571 8.39363C95.0915 7.77396 96.7374 8.05563 97.5015 9.35129C98.0894 10.478 97.913 12.5623 96.561 13.2383L85.5103 18.6462L96.3847 24.7866C98.0306 25.7442 98.3832 27.2652 97.4428 28.7299Z"
                        fill="#FFCC49"
                    />
                    <path
                        d="M121.109 16.2803C121.109 20.1672 118.523 22.9839 112.351 23.2092C109.882 23.3219 107.825 22.8149 106.238 22.1389C107.002 24.3359 108.707 25.4626 111.117 25.6879C113.409 25.9132 115.231 25.5189 116.466 24.7866C117.935 23.9416 119.17 24.2796 119.934 25.5189C120.815 26.9272 120.58 28.2229 118.817 29.2932C116.877 30.5325 114.291 31.2085 110.529 30.9269C104.651 30.4762 100.183 26.8145 100.183 19.4912C100.183 13.4636 104.298 8.61896 111.117 8.61896C116.995 8.61896 121.109 11.7736 121.109 16.2803ZM115.584 16.1676C115.584 14.9283 113.585 13.9143 111.175 13.8579C109.294 13.8016 107.296 15.2099 106.649 17.0689C107.649 17.6323 108.883 17.9139 111.587 18.0266C115.172 18.1393 115.584 16.7309 115.584 16.1676Z"
                        fill="#FFCC49"
                    />
                    <path
                        d="M135.184 24.0542H141.708C143.472 24.0542 144.53 25.1246 144.471 26.7019C144.412 28.4482 143.295 29.4059 141.65 29.4059H132.715C130.364 29.4059 129.07 28.5045 129.07 26.1949V16.3366H125.308C123.957 16.3366 122.957 15.2663 122.957 13.7453C122.957 12.1679 123.78 11.1539 125.426 11.1539H129.07V6.19664C129.07 4.78831 130.364 3.88698 132.127 3.88698C133.949 3.88698 135.184 4.84465 135.184 6.25297V11.1539H142.531C144.001 11.1539 145 12.1116 145 13.6889C145 15.3226 143.942 16.3366 142.472 16.3366H135.184V24.0542Z"
                        fill="#FFCC49"
                    />
                </svg>